<svg width="14" height="15" viewBox="0 0 14 15" fill="none" xmlns="http://www.w3.org/2000/svg">
<path d="M1.16712 6.91667H11.4256L8.33803 3.82909C8.28232 3.77528 8.23788 3.71091 8.20731 3.63974C8.17673 3.56857 8.16064 3.49203 8.15997 3.41457C8.1593 3.33712 8.17406 3.26031 8.20339 3.18862C8.23272 3.11693 8.27603 3.0518 8.3308 2.99703C8.38557 2.94226 8.4507 2.89894 8.52239 2.86961C8.59408 2.84028 8.6709 2.82552 8.74835 2.82619C8.8258 2.82687 8.90235 2.84296 8.97352 2.87353C9.04469 2.9041 9.10906 2.94854 9.16287 3.00426L13.2462 7.08759C13.3556 7.19698 13.417 7.34533 13.417 7.50001C13.417 7.65469 13.3556 7.80303 13.2462 7.91242L9.16287 11.9958C9.05285 12.102 8.9055 12.1608 8.75255 12.1595C8.5996 12.1582 8.45329 12.0968 8.34514 11.9887C8.23698 11.8805 8.17564 11.7342 8.17431 11.5812C8.17298 11.4283 8.23177 11.2809 8.33803 11.1709L11.4256 8.08334H1.16712C1.01241 8.08334 0.864033 8.02188 0.754637 7.91249C0.645241 7.80309 0.583782 7.65472 0.583782 7.50001C0.583782 7.3453 0.645241 7.19692 0.754637 7.08753C0.864033 6.97813 1.01241 6.91667 1.16712 6.91667Z" fill="white"/>
</svg>
