<svg width="324" height="140" viewBox="0 0 324 140" fill="none" xmlns="http://www.w3.org/2000/svg">
<path d="M26.54 13.5779L29.6581 7.73349C29.6581 7.73349 32.0121 14.4022 39.1137 14.0057C46.2153 13.6093 52.725 14.0401 53.6405 17.9195L50.2369 23.6506C50.2369 23.6506 50.1883 23.669 50.1814 23.6427C50.1309 23.226 49.6614 21.3006 45.3394 19.9436C40.4647 18.4087 36.7715 23.6903 26.54 13.5779Z" fill="#A5A7EB"/>
<path d="M287.417 67.0986L289.229 62.1189C289.229 62.1189 291.844 67.136 297.424 66.0233C303.004 64.9106 308.208 64.5197 309.37 67.4894L307.318 72.4114C307.318 72.4114 307.282 72.4314 307.274 72.4114C307.187 72.087 306.598 70.6148 303.023 70.0261C298.989 69.3586 296.658 73.9573 287.417 67.0986Z" fill="#A5A7EB"/>
<path d="M154.052 25.1725L158.782 28.2886C158.782 28.2886 152.919 29.7658 152.695 35.8427C152.472 41.9197 151.591 47.4273 148.216 47.9003L143.606 44.5501C143.606 44.5501 143.594 44.5073 143.617 44.5035C143.976 44.4934 145.652 44.2458 147.149 40.6737C148.84 36.6451 144.636 33.0839 154.052 25.1725Z" fill="#A5A7EB"/>
<path d="M184.969 27.4852L181 23.0119C181 23.0119 187.649 23.5467 189.849 17.9126C192.049 12.2785 194.76 7.39796 198.462 8.06045L202.23 12.7221C202.23 12.7221 202.23 12.7647 202.206 12.7586C201.823 12.6492 199.981 12.3332 197.246 15.1958C194.165 18.4231 197.434 23.1456 184.969 27.4852Z" fill="#FF6301"/>
<path d="M297.569 116.343L302.315 119.983C302.315 119.983 295.687 120.723 294.601 126.669C293.514 132.616 291.777 137.93 288.019 137.977L283.429 134.118C283.429 134.118 283.425 134.072 283.45 134.079C283.846 134.116 285.713 134.071 287.854 130.744C290.269 126.986 286.158 122.973 297.574 116.34L297.569 116.343Z" fill="#FF6301"/>
<path d="M297.573 116.312C299.164 117.458 300.796 118.629 302.422 119.839L302.743 120.078L302.335 120.145C300.342 120.489 298.37 121.343 296.922 122.754C296.185 123.442 295.614 124.303 295.244 125.239C295.02 125.698 294.931 126.199 294.783 126.685C294.67 127.193 294.573 127.706 294.451 128.212C294.224 129.229 293.95 130.237 293.652 131.238C293.361 132.241 292.997 133.223 292.562 134.167C292.128 135.111 291.6 136.038 290.853 136.795C290.127 137.553 289.107 138.094 288.017 138.123L287.963 138.125L287.92 138.086L285.001 135.704L283.545 134.512L283.364 134.362L283.259 134.274C283.189 134.209 283.158 134.08 283.214 133.98C283.261 133.877 283.387 133.828 283.463 133.841L283.515 133.846C283.649 133.849 283.787 133.834 283.933 133.809C284.216 133.756 284.492 133.651 284.752 133.52C285.814 132.978 286.645 132.021 287.338 131.016C287.517 130.764 287.68 130.506 287.81 130.239C287.967 129.985 288.069 129.705 288.168 129.421C288.283 129.141 288.321 128.834 288.399 128.548C288.445 128.244 288.5 127.942 288.538 127.636C288.69 126.41 288.826 125.104 289.328 123.906C289.813 122.704 290.58 121.658 291.431 120.711C293.214 118.891 295.365 117.52 297.57 116.307L297.573 116.312ZM297.567 116.364C295.472 117.711 293.411 119.157 291.723 120.987C290.916 121.923 290.21 122.942 289.785 124.09C289.348 125.23 289.201 126.453 289.058 127.708C289.023 128.02 288.963 128.338 288.918 128.656C288.833 128.967 288.793 129.295 288.671 129.6C288.565 129.909 288.454 130.222 288.284 130.504C288.136 130.802 287.961 131.073 287.776 131.329C287.038 132.366 286.16 133.362 284.962 133.959C284.667 134.103 284.351 134.223 284.013 134.279C283.843 134.311 283.675 134.321 283.493 134.318L283.427 134.313C283.487 134.321 283.592 134.284 283.629 134.201C283.674 134.12 283.648 134.009 283.594 133.963C283.594 133.963 283.645 134.004 283.67 134.025L283.846 134.177L285.269 135.41L288.109 137.877L288.013 137.84C289.022 137.842 289.989 137.38 290.714 136.67C291.444 135.958 291.976 135.05 292.419 134.122C293.277 132.239 293.764 130.202 294.15 128.171C294.25 127.663 294.333 127.151 294.425 126.641C294.557 126.129 294.629 125.595 294.849 125.104C295.227 124.108 295.826 123.183 296.604 122.444C297.382 121.705 298.292 121.129 299.255 120.697C300.224 120.263 301.236 119.957 302.297 119.825L302.212 120.136C300.676 118.926 299.145 117.663 297.571 116.383L297.567 116.364Z" fill="#FF6301"/>
<path d="M0.03125 109.599L4.9786 115.057C4.9786 115.057 5.70794 107.222 13.4754 105.727C21.2429 104.232 28.1533 101.995 28.0865 97.5647L22.8596 92.3013C22.8596 92.3013 22.8049 92.2952 22.8049 92.3256C22.8656 92.7875 22.8778 94.9938 18.5869 97.6315C13.7428 100.61 8.32748 95.9115 0.03125 109.599Z" fill="#FF6301"/>
<path d="M0.0607727 109.597C1.80511 111.402 3.48867 113.152 5.13576 114.915L4.76501 115.036C4.91088 113.693 5.31809 112.417 5.90156 111.214C6.48503 110.01 7.27515 108.898 8.25976 107.986C8.50288 107.755 8.75814 107.53 9.03772 107.348C9.3173 107.166 9.57257 106.935 9.87647 106.789L10.7638 106.309L11.6998 105.944C12.0098 105.804 12.338 105.75 12.6662 105.671C12.9883 105.598 13.3165 105.506 13.6386 105.452C14.2829 105.336 14.9211 105.221 15.5592 105.093C18.118 104.595 20.6646 103.963 23.0593 102.929C24.2384 102.395 25.3992 101.769 26.3474 100.893C27.2834 100.024 27.9398 98.8269 27.9033 97.5627L27.958 97.6904L24.5848 94.3962L22.9012 92.743L22.6946 92.5364L22.6703 92.5121C22.6277 92.4695 22.725 92.5728 22.8222 92.5728C22.9134 92.5789 23.0228 92.5364 23.0775 92.427C23.1018 92.3783 23.1079 92.3054 23.1018 92.2872V92.3115C23.1079 92.3723 23.114 92.427 23.114 92.4817C23.114 92.7065 23.0957 92.9253 23.0471 93.1381C22.9559 93.5574 22.7918 93.9525 22.5913 94.3172C21.7525 95.7637 20.458 96.803 19.133 97.6782C18.4705 98.128 17.6986 98.4805 16.9267 98.7297C16.5378 98.8391 16.1427 98.9302 15.7476 99.0153C15.3526 99.0761 14.9575 99.1551 14.5685 99.2037C13.0005 99.4043 11.4689 99.617 10.0284 100.14C8.58797 100.656 7.25692 101.465 6.06567 102.455C5.76178 102.692 5.49435 102.978 5.20262 103.239C4.92304 103.513 4.61307 103.75 4.36387 104.054L3.57984 104.923C3.31241 105.209 3.05714 105.5 2.82619 105.816C2.36427 106.442 1.8355 107.044 1.40398 107.676L0.0668565 109.609L0.0607727 109.597ZM0 109.603C1.57416 106.868 3.35496 104.2 5.73747 102.072C6.94088 101.021 8.30838 100.146 9.81568 99.5623C11.3169 98.9606 12.9336 98.7661 14.4774 98.5473C14.8664 98.4987 15.2432 98.4197 15.6261 98.3589C16.0029 98.2799 16.3737 98.1887 16.7383 98.0854C17.4616 97.8484 18.1241 97.5323 18.7744 97.113C20.069 96.2864 21.3028 95.2957 22.0686 94.0194C22.2448 93.6972 22.3968 93.3569 22.4758 93.0104C22.5183 92.8403 22.5366 92.664 22.5366 92.4938C22.5366 92.4513 22.5366 92.4148 22.5366 92.3723V92.3601C22.5366 92.3601 22.5366 92.2446 22.5609 92.1839C22.6277 92.0501 22.7615 91.9894 22.8769 92.0015C22.9985 92.0015 23.114 92.1231 23.0897 92.1048L23.114 92.1292L23.3206 92.3419L24.9616 94.0376L28.2315 97.4351L28.2862 97.4898V97.5627C28.2862 98.9546 27.5204 100.213 26.5297 101.076C25.539 101.963 24.3599 102.589 23.1565 103.112C21.9531 103.634 20.7193 104.09 19.4612 104.455C18.2031 104.832 16.9389 105.184 15.6626 105.476C15.0244 105.634 14.3862 105.768 13.742 105.908C13.4198 105.974 13.122 106.072 12.806 106.157C12.496 106.242 12.186 106.315 11.8943 106.449C10.6787 106.85 9.59689 107.567 8.6609 108.412C6.7707 110.107 5.60375 112.575 5.20262 115.079L5.12969 115.541L4.83187 115.201C3.1787 113.323 1.56808 111.438 0.0121582 109.603H0Z" fill="#FF6301"/>
<path d="M298.023 37.6054L302.129 42.1348C302.129 42.1348 302.734 35.6332 309.181 34.3924C315.627 33.1516 321.362 31.2955 321.306 27.6184L316.968 23.2504C316.968 23.2504 316.923 23.2454 316.923 23.2706C316.973 23.6539 316.984 25.4849 313.423 27.6739C309.403 30.1454 304.908 26.2465 298.023 37.6054Z" fill="#00EDBE" fill-opacity="0.2"/>
<path d="M298.05 37.6034C299.498 39.1014 300.895 40.5541 302.262 42.0168L301.954 42.1177C302.075 41.003 302.413 39.9438 302.898 38.9451C303.382 37.9464 304.038 37.0233 304.855 36.2668C305.056 36.0751 305.268 35.8885 305.5 35.7371C305.732 35.5858 305.944 35.3942 306.196 35.2731L306.933 34.8746L307.71 34.572C307.967 34.456 308.239 34.4106 308.512 34.345C308.779 34.2845 309.051 34.2088 309.319 34.1634C309.853 34.0676 310.383 33.9718 310.912 33.8659C313.036 33.4523 315.149 32.9277 317.137 32.0702C318.115 31.6264 319.079 31.1068 319.865 30.3805C320.642 29.6592 321.187 28.6656 321.157 27.6164L321.202 27.7224L318.403 24.9886L317.005 23.6166L316.834 23.4451L316.814 23.4249C316.778 23.3896 316.859 23.4754 316.94 23.4754C317.016 23.4804 317.106 23.4451 317.152 23.3543C317.172 23.314 317.177 23.2535 317.172 23.2383V23.2585C317.177 23.3089 317.182 23.3543 317.182 23.3997C317.182 23.5864 317.167 23.7679 317.127 23.9445C317.051 24.2925 316.915 24.6204 316.748 24.923C316.052 26.1234 314.978 26.986 313.878 27.7123C313.328 28.0855 312.688 28.3781 312.047 28.5849C311.724 28.6757 311.397 28.7513 311.069 28.8219C310.741 28.8724 310.413 28.9379 310.09 28.9783C308.789 29.1447 307.518 29.3213 306.322 29.7551C305.127 30.1838 304.022 30.8546 303.034 31.6768C302.782 31.8735 302.56 32.1106 302.318 32.3275C302.086 32.5544 301.828 32.7511 301.622 33.0033L300.971 33.7246C300.749 33.9617 300.537 34.2038 300.345 34.4661C299.962 34.9856 299.523 35.4849 299.165 36.0095L298.055 37.6135L298.05 37.6034ZM298 37.6084C299.306 35.3387 300.784 33.1244 302.761 31.359C303.76 30.4864 304.895 29.7601 306.146 29.2759C307.392 28.7765 308.733 28.6151 310.015 28.4336C310.337 28.3932 310.65 28.3276 310.968 28.2772C311.281 28.2116 311.588 28.136 311.891 28.0502C312.491 27.8535 313.041 27.5912 313.581 27.2432C314.655 26.5572 315.679 25.7351 316.314 24.6758C316.461 24.4085 316.587 24.1261 316.652 23.8386C316.688 23.6973 316.703 23.551 316.703 23.4098C316.703 23.3745 316.703 23.3442 316.703 23.3089V23.2989C316.703 23.2989 316.703 23.203 316.723 23.1526C316.778 23.0416 316.889 22.9912 316.985 23.0013C317.086 23.0013 317.182 23.1021 317.162 23.087L317.182 23.1072L317.353 23.2837L318.715 24.691L321.429 27.5105L321.474 27.5559V27.6164C321.474 28.7715 320.839 29.8156 320.017 30.5318C319.195 31.2682 318.216 31.7878 317.217 32.2215C316.219 32.6553 315.195 33.0336 314.151 33.3362C313.107 33.649 312.057 33.9415 310.998 34.1836C310.469 34.3148 309.939 34.4257 309.404 34.5417C309.137 34.5972 308.89 34.6779 308.628 34.7485C308.37 34.8192 308.113 34.8797 307.871 34.9906C306.862 35.3235 305.964 35.9187 305.188 36.6198C303.619 38.0271 302.65 40.0749 302.318 42.153L302.257 42.5363L302.01 42.2539C300.638 40.6953 299.301 39.1317 298.01 37.6084H298Z" fill="#00EDBE" fill-opacity="0.2"/>
<path d="M270.181 29.0969L265.714 31.0905C265.714 31.0905 267.768 26.0398 263.915 22.934C260.062 19.8343 256.919 16.5158 258.354 13.793L262.918 12C262.918 12 262.955 12.0122 262.942 12.0304C262.766 12.3039 262.061 13.6592 263.623 16.4976C265.38 19.6945 269.871 18.3088 270.187 29.103L270.181 29.0969Z" fill="#141BEB" stroke="#9E57D4" stroke-width="0.571316" stroke-miterlimit="10"/>
<path d="M26.1812 60.0969L21.714 62.0905C21.714 62.0905 23.7683 57.0398 19.915 53.934C16.0616 50.8343 12.9194 47.5158 14.3537 44.793L18.9182 43C18.9182 43 18.9547 43.0122 18.9425 43.0304C18.7662 43.3039 18.0612 44.6592 19.6232 47.4976C21.3797 50.6945 25.8712 49.3088 26.1873 60.103L26.1812 60.0969Z" fill="#141BEB" stroke="#9E57D4" stroke-width="0.571316" stroke-miterlimit="10"/>
<path d="M129.485 11.1254L128.768 17.0634C128.768 17.0634 124.756 11.7331 119.086 13.83C113.415 15.9268 107.957 17.1363 106 13.9272L106.985 8.01351C106.985 8.01351 107.021 7.98312 107.027 8.01351C107.197 8.3721 108.182 9.95841 112.139 10.1043C116.6 10.2684 117.961 4.68893 129.485 11.1314V11.1254Z" fill="#00EDBE" fill-opacity="0.2"/>
<path d="M230.79 27.0312C230.732 27.8406 230.475 29.8136 229.027 31.7398C227.731 33.4636 226.151 34.2614 225.4 34.5843C226.151 34.8723 227.626 35.5611 228.875 37.0787C230.619 39.1956 230.763 40.7171 230.79 42.2892C230.864 41.4331 231.152 39.3824 232.677 37.4056C233.903 35.814 235.351 35.0202 236.125 34.6622C235.358 34.3353 233.989 33.6271 232.802 32.1951C231.082 30.1249 230.837 27.8601 230.786 27.0351L230.79 27.0312Z" fill="#FFCC00"/>
<path d="M230.79 27.0623C230.794 27.1167 230.814 27.1518 230.81 27.1907L230.798 27.3385L230.763 27.6421C230.736 27.8444 230.705 28.0468 230.662 28.2452C230.58 28.646 230.475 29.043 230.339 29.4282C230.074 30.2026 229.701 30.9419 229.23 31.6151C228.296 32.9693 226.977 34.0511 225.463 34.7243V34.4402C226.253 34.7399 227.004 35.1524 227.681 35.6699C228.358 36.1836 228.954 36.814 229.456 37.4949C229.961 38.1759 230.401 38.9231 230.67 39.748C230.946 40.5691 231.02 41.4447 231.039 42.2813L230.545 42.2657C230.67 40.6002 231.23 38.9659 232.176 37.5728C232.654 36.884 233.219 36.2497 233.868 35.7127C234.518 35.1757 235.234 34.7282 236.001 34.378L236.009 34.9383C234.468 34.2496 233.11 33.1366 232.191 31.7319C231.728 31.0314 231.378 30.2648 231.133 29.4749C231.012 29.078 230.927 28.6694 230.86 28.2647C230.829 28.0623 230.806 27.8561 230.786 27.6499L230.767 27.3424V27.1946C230.763 27.1595 230.786 27.1206 230.79 27.0662V27.0623ZM230.79 27C230.802 27.0467 230.833 27.109 230.837 27.1751L230.86 27.3308L230.911 27.6304C230.946 27.8289 230.989 28.0312 231.035 28.2258C231.133 28.6188 231.249 29.0079 231.397 29.3815C231.681 30.1325 232.063 30.8485 232.541 31.4867C233.02 32.1249 233.569 32.7086 234.199 33.1911C234.826 33.6775 235.518 34.0784 236.25 34.3741L236.892 34.6348L236.258 34.9344C234.833 35.6038 233.588 36.6427 232.678 37.9191C231.763 39.1955 231.195 40.7287 231.039 42.3046L230.545 42.2891C230.545 41.4641 230.487 40.6547 230.246 39.8842C230.012 39.1137 229.611 38.3938 229.136 37.7323C228.662 37.0591 228.113 36.456 227.467 35.9501C226.829 35.4403 226.113 35.0278 225.35 34.7282L225 34.5881L225.346 34.4441C226.821 33.8332 228.136 32.8098 229.082 31.5101C229.561 30.8641 229.946 30.1442 230.226 29.3893C230.366 29.0118 230.483 28.6227 230.572 28.2297C230.619 28.0312 230.654 27.8327 230.689 27.6343L230.732 27.3347L230.751 27.1829C230.755 27.1206 230.783 27.0545 230.798 27.0078L230.79 27Z" fill="#FFCC00"/>
<path d="M44.3662 122.027C44.3121 122.777 44.0743 124.604 42.7337 126.388C41.5336 127.984 40.0705 128.723 39.375 129.022C40.0705 129.289 41.4363 129.927 42.5931 131.332C44.2076 133.293 44.3409 134.702 44.3662 136.158C44.4346 135.365 44.7013 133.466 46.114 131.635C47.2491 130.161 48.5897 129.426 49.3068 129.094C48.5969 128.792 47.3284 128.136 46.2293 126.809C44.6364 124.892 44.4094 122.795 44.3626 122.031L44.3662 122.027Z" fill="#FFCC00"/>
<path d="M44.3623 122.058C44.3659 122.108 44.384 122.141 44.3803 122.177L44.3695 122.314L44.3371 122.595C44.3119 122.782 44.283 122.969 44.2434 123.153C44.1677 123.524 44.0704 123.892 43.9443 124.249C43.6992 124.966 43.3533 125.651 42.9172 126.274C42.0523 127.528 40.8307 128.53 39.4288 129.153V128.89C40.1604 129.168 40.8559 129.55 41.483 130.029C42.11 130.505 42.6614 131.089 43.1263 131.719C43.5947 132.35 44.002 133.042 44.2506 133.806C44.5065 134.566 44.575 135.377 44.593 136.152L44.1353 136.137C44.2506 134.595 44.7696 133.081 45.6453 131.791C46.0885 131.153 46.611 130.566 47.2129 130.069C47.8147 129.571 48.4778 129.157 49.1877 128.833L49.1949 129.352C47.7678 128.714 46.5101 127.683 45.6597 126.382C45.2308 125.733 44.9065 125.024 44.6795 124.292C44.5677 123.924 44.4885 123.546 44.4272 123.171C44.3984 122.984 44.3767 122.793 44.3587 122.602L44.3407 122.317V122.18C44.3371 122.148 44.3587 122.112 44.3623 122.061V122.058ZM44.3623 122C44.3731 122.043 44.402 122.101 44.4056 122.162L44.4272 122.306L44.474 122.584C44.5065 122.768 44.5461 122.955 44.5894 123.135C44.6795 123.499 44.7876 123.86 44.9245 124.205C45.1876 124.901 45.5408 125.564 45.984 126.155C46.4273 126.746 46.9354 127.287 47.5192 127.734C48.0994 128.184 48.7408 128.555 49.4183 128.829L50.013 129.07L49.4256 129.348C48.1066 129.968 46.9534 130.93 46.1101 132.112C45.2633 133.294 44.7371 134.714 44.593 136.173L44.1353 136.159C44.1353 135.395 44.0812 134.645 43.8578 133.932C43.6416 133.218 43.2704 132.552 42.8308 131.939C42.3911 131.316 41.883 130.757 41.2847 130.289C40.6937 129.816 40.0307 129.434 39.3243 129.157L39 129.027L39.3207 128.894C40.6865 128.328 41.9046 127.38 42.7803 126.177C43.2236 125.578 43.5803 124.912 43.8398 124.213C43.9695 123.863 44.0776 123.503 44.1605 123.139C44.2038 122.955 44.2362 122.771 44.2686 122.587L44.3083 122.31L44.3263 122.169C44.3299 122.112 44.3551 122.05 44.3695 122.007L44.3623 122Z" fill="#FFCC00"/>
<path d="M76.2936 22.043C76.21 23.2014 75.8425 26.025 73.7707 28.7818C71.9161 31.249 69.655 32.3907 68.5801 32.853C69.655 33.2651 71.7657 34.2509 73.5535 36.4229C76.0485 39.4526 76.2546 41.6302 76.2936 43.8802C76.3994 42.655 76.8115 39.72 78.9947 36.8907C80.749 34.6129 82.8208 33.4768 83.9291 32.9644C82.8319 32.4966 80.8716 31.4829 79.1729 29.4334C76.7113 26.4706 76.3604 23.2292 76.288 22.0485L76.2936 22.043Z" fill="#FFCC00"/>
<path d="M76.2871 22.0891C76.2927 22.1671 76.3205 22.2172 76.315 22.2729L76.2983 22.4845L76.2481 22.9189C76.2092 23.2085 76.1646 23.4981 76.1033 23.7822C75.9864 24.3558 75.836 24.9239 75.6411 25.4752C75.2624 26.5835 74.7277 27.6417 74.0538 28.6052C72.7172 30.5433 70.8292 32.0916 68.6627 33.0551V32.6485C69.7933 33.0774 70.8682 33.6677 71.8372 34.4084C72.8063 35.1436 73.6584 36.0458 74.3768 37.0204C75.1009 37.9951 75.7302 39.0644 76.1145 40.2451C76.5099 41.4202 76.6157 42.6733 76.6436 43.8707L75.9363 43.8484C76.1145 41.4647 76.9109 39.1256 78.2698 37.1318C78.9548 36.146 79.7624 35.2382 80.6924 34.4697C81.6225 33.7011 82.6473 33.0606 83.7444 32.5594L83.7556 33.3614C81.5501 32.3756 79.6064 30.7828 78.2921 28.7723C77.6293 27.7698 77.1281 26.6726 76.7772 25.5421C76.6046 24.974 76.4821 24.3892 76.3874 23.81C76.3428 23.5204 76.3094 23.2252 76.2816 22.9301L76.2537 22.4901V22.2785C76.2481 22.2283 76.2815 22.1726 76.2871 22.0947V22.0891ZM76.2871 22C76.3038 22.0668 76.3484 22.1559 76.354 22.2506L76.3874 22.4734L76.4598 22.9022C76.5099 23.1863 76.5712 23.4759 76.638 23.7543C76.7772 24.3168 76.9443 24.8738 77.1559 25.4084C77.5625 26.4833 78.1083 27.508 78.7933 28.4214C79.4783 29.3348 80.2636 30.1702 81.1658 30.8608C82.0625 31.5569 83.0538 32.1306 84.1009 32.5538L85.0198 32.927L84.112 33.3558C82.0736 34.3137 80.2915 35.8007 78.9882 37.6275C77.6794 39.4542 76.8663 41.6485 76.6436 43.9041L75.9363 43.8818C75.9363 42.7011 75.8527 41.5427 75.5074 40.44C75.1733 39.3373 74.5996 38.3069 73.9202 37.3602C73.2407 36.3967 72.4554 35.5334 71.5309 34.8094C70.6176 34.0798 69.5928 33.4895 68.5012 33.0606L68 32.8602L68.4957 32.6541C70.6064 31.7797 72.4889 30.315 73.8422 28.4548C74.5272 27.5303 75.0786 26.5 75.4796 25.4196C75.6801 24.8793 75.8471 24.3224 75.9752 23.7599C76.0421 23.4759 76.0922 23.1918 76.1423 22.9078L76.2036 22.479L76.2314 22.2618C76.237 22.1726 76.276 22.078 76.2983 22.0111L76.2871 22Z" fill="#FFCC00"/>
<path d="M317.145 88.0312C317.084 88.8882 316.81 90.979 315.279 93.0211C313.905 94.8506 312.234 95.6954 311.438 96.0357C312.234 96.3396 313.796 97.069 315.121 98.6796C316.968 100.922 317.12 102.533 317.151 104.204C317.23 103.299 317.534 101.123 319.15 99.026C320.451 97.3425 321.983 96.4977 322.803 96.1208C321.989 95.7744 320.542 95.0208 319.284 93.5074C317.461 91.3133 317.199 88.9125 317.151 88.0373L317.145 88.0312Z" fill="#FFCC00"/>
<path d="M317.139 88.0669C317.187 88.231 317.12 88.4801 317.108 88.6807C317.078 88.8934 317.047 89.1062 316.999 89.3189C316.914 89.7443 316.798 90.1637 316.658 90.5709C316.379 91.3914 315.978 92.1755 315.485 92.8866C314.495 94.3209 313.097 95.4696 311.492 96.1808V95.8829C312.331 96.199 313.127 96.6366 313.844 97.1836C314.562 97.7306 315.194 98.3992 315.722 99.1163C316.257 99.8335 316.725 100.63 317.011 101.505C317.303 102.374 317.382 103.304 317.4 104.191L316.877 104.173C317.011 102.411 317.601 100.672 318.603 99.2014C319.114 98.4721 319.71 97.7975 320.396 97.2322C321.083 96.667 321.843 96.1868 322.657 95.8222V96.4178C321.034 95.6884 319.594 94.5094 318.622 93.0203C318.129 92.2788 317.759 91.4704 317.497 90.6256C317.37 90.2063 317.278 89.7747 317.212 89.3432C317.175 89.1244 317.151 88.9117 317.133 88.6929C317.133 88.4801 317.078 88.237 317.133 88.0729L317.139 88.0669ZM317.139 88C317.224 88.2674 317.218 88.4498 317.266 88.6686C317.303 88.8813 317.345 89.094 317.4 89.3007C317.503 89.72 317.625 90.1272 317.783 90.5223C318.087 91.3185 318.488 92.0782 318.998 92.7529C319.503 93.4275 320.086 94.0474 320.755 94.558C321.417 95.0746 322.153 95.494 322.925 95.81L323.605 96.0896L322.931 96.4056C321.423 97.1167 320.105 98.2168 319.138 99.5722C318.166 100.928 317.564 102.55 317.4 104.216L316.877 104.197C316.877 103.322 316.816 102.465 316.561 101.651C316.312 100.836 315.887 100.071 315.382 99.3716C314.878 98.6605 314.294 98.0223 313.613 97.4814C312.939 96.9405 312.179 96.5029 311.371 96.1868L311 96.041L311.365 95.889C312.927 95.2387 314.318 94.1568 315.321 92.7772C315.826 92.0904 316.233 91.3306 316.531 90.5284C316.683 90.1272 316.804 89.7139 316.902 89.3007C316.95 89.094 316.987 88.8813 317.023 88.6686C317.072 88.4498 317.054 88.2674 317.133 88H317.139Z" fill="#FFCC00"/>
</svg>
