<svg width="21" height="19" viewBox="0 0 21 19" fill="none" xmlns="http://www.w3.org/2000/svg">
<g clip-path="url(#clip0_44_5015)">
<path d="M1.23047 12.1054C1.23047 12.4376 0.955054 12.7068 0.615234 12.7068C0.275413 12.7068 0 12.4376 0 12.1054C0 11.7732 0.275413 11.5039 0.615234 11.5039C0.955054 11.5039 1.23047 11.7732 1.23047 12.1054Z" fill="white"/>
<path d="M4.96289 3.08194C4.96289 3.41416 4.68748 3.68341 4.34766 3.68341C4.00784 3.68341 3.73242 3.41416 3.73242 3.08194C3.73242 2.74972 4.00784 2.48047 4.34766 2.48047C4.68748 2.48047 4.96289 2.74972 4.96289 3.08194Z" fill="white"/>
<path d="M9.11638 7.47398C9.26683 7.47398 9.41903 7.46239 9.5714 7.43874C10.8078 7.24639 11.772 6.25992 11.9163 5.03975C11.9495 4.75875 11.9396 4.47744 11.8869 4.2038C11.7882 3.69192 11.4501 3.26917 10.9594 3.04409C10.4537 2.81212 9.86139 2.83138 9.37497 3.09546C8.77993 3.41875 8.43434 4.03072 8.49474 4.65474C8.50003 4.70925 8.4981 4.76533 8.48881 4.82156C8.45068 5.05525 8.26595 5.26311 8.02931 5.33892C7.85147 5.39577 7.6818 5.37948 7.51037 5.28942C7.26684 5.16114 6.96547 5.20766 6.77417 5.40329C6.58287 5.59877 6.54858 5.89528 6.69069 6.12756C7.20852 6.97448 8.12832 7.47414 9.11638 7.47398Z" fill="white"/>
<path d="M20.7529 1.0202C20.5063 0.602773 20.1084 0.30423 19.6322 0.179394C19.156 0.0547143 18.6587 0.118777 18.2317 0.359679L13.7561 2.88585C13.6148 2.96574 13.5117 3.09699 13.4694 3.25112C13.4273 3.40525 13.4494 3.5694 13.531 3.70755L13.9879 4.48132L12.4472 7.79175L0.541033 14.5121C0.399722 14.5918 0.296542 14.7231 0.254405 14.8772C0.212107 15.0313 0.234217 15.1955 0.315928 15.3336L1.5464 17.4172C1.95719 18.1128 2.62049 18.6105 3.41421 18.8184C3.67921 18.8878 3.94821 18.9221 4.21545 18.9221C4.74834 18.9221 5.27449 18.7855 5.74841 18.518L13.563 14.1072C15.0319 13.278 15.537 11.435 14.6888 9.99902L13.6168 8.18349L14.7438 5.76148L14.7613 5.79108C14.8753 5.98405 15.082 6.09181 15.2948 6.09181C15.3991 6.09181 15.5048 6.06581 15.6018 6.01115L20.0773 3.48497C20.9586 2.98766 21.2618 1.88184 20.7529 1.0202Z" fill="white"/>
<path d="M0.785046 9.99957C0.837437 10.0132 0.890949 10.0201 0.944301 10.0201C1.05133 10.0201 1.15755 9.99268 1.25192 9.93943L2.8504 9.03722L3.77326 10.5999C3.88717 10.7929 4.09385 10.9007 4.30662 10.9007C4.41092 10.9007 4.51666 10.8747 4.61359 10.82C4.90791 10.654 5.00869 10.2861 4.8387 9.99848L3.91585 8.43575L5.51434 7.53355C5.65565 7.45382 5.75883 7.3224 5.80096 7.16828C5.84326 7.01431 5.82115 6.85 5.73944 6.71201C5.32864 6.01624 4.66534 5.51862 3.87163 5.31077C3.07791 5.10292 2.24895 5.20958 1.53726 5.61119C0.0685545 6.44025 -0.43661 8.28319 0.411579 9.71936C0.49313 9.85751 0.627392 9.95822 0.785046 9.99957Z" fill="white"/>
</g>
<defs>
<clipPath id="clip0_44_5015">
<rect width="21" height="19" fill="white"/>
</clipPath>
</defs>
</svg>
