<svg width="126" height="60" viewBox="0 0 126 60" fill="none" xmlns="http://www.w3.org/2000/svg">
<g opacity="0.1">
<path d="M62.9642 -16.3916C35.5 -40.413 0.579717 -19.3071 0.00710077 9.30524C-0.138822 16.5972 1.9661 23.7001 6.15602 30.2484H33.3138L38.1443 22.1974C39.5469 19.8599 42.9413 19.7846 44.4234 22.1149L54.6151 38.1302L69.4714 6.76771C70.7669 4.03111 74.6281 3.94425 76.0571 6.59792L88.7919 30.2484H119.772C142.722 -5.61946 97.3659 -46.4805 62.9642 -16.3916Z" fill="white"/>
<path d="M83.3374 35.69L73.018 16.5254L58.4255 47.3315C57.1841 49.9525 53.5326 50.1801 51.9757 47.7331L41.4018 31.1174L38.5688 35.8391C37.9016 36.9508 36.7003 37.631 35.4037 37.631H11.9951C12.7289 38.399 8.81804 34.496 60.3607 85.7716C61.8002 87.204 64.1273 87.2043 65.5671 85.7716C116.317 35.2849 113.2 38.3975 113.933 37.631H86.5873C85.2292 37.6312 83.9812 36.8856 83.3374 35.69Z" fill="white"/>
</g>
</svg>
