<svg width="22" height="15" viewBox="0 0 22 15" fill="none" xmlns="http://www.w3.org/2000/svg">
<g clip-path="url(#clip0_348_75)">
<path d="M21.9321 12.165C21.8477 12.0203 21.7002 11.9316 21.5416 11.9316H0.45825C0.299652 11.9316 0.152098 12.0203 0.0686523 12.165C-0.01475 12.3098 -0.023 12.491 0.0485 12.6437C0.692 14.0274 1.9854 14.8862 3.42455 14.8862H18.5752C20.0135 14.8862 21.3069 14.0274 21.9522 12.6447C22.0219 12.491 22.0155 12.3108 21.9321 12.165Z" fill="white"/>
<path d="M12.2571 2.18539C12.3323 2.00317 12.3754 1.80227 12.3754 1.59055C12.3754 0.776069 11.7585 0.113281 11.0004 0.113281C10.2423 0.113281 9.6254 0.776069 9.6254 1.59055C9.6254 1.80231 9.6685 2.00322 9.74365 2.18539C5.59025 2.79896 2.3104 6.39169 1.88965 10.9466H20.1102C19.6895 6.39368 16.4087 2.79896 12.2571 2.18539ZM10.5723 5.03652C8.0084 5.21874 5.80015 7.01704 4.94855 9.61805C4.88255 9.81993 4.7047 9.94698 4.5159 9.94698C4.4655 9.94698 4.41415 9.93811 4.36375 9.91942C4.1254 9.8288 3.99984 9.54811 4.08325 9.29107C5.05675 6.31681 7.58034 4.26146 10.5118 4.05363C10.7547 4.03687 10.9821 4.24074 10.9995 4.51255C11.016 4.78442 10.8253 5.0188 10.5723 5.03652Z" fill="white"/>
</g>
<defs>
<clipPath id="clip0_348_75">
<rect width="22" height="15" fill="white"/>
</clipPath>
</defs>
</svg>
