<svg width="28" height="14" viewBox="0 0 28 14" fill="none" xmlns="http://www.w3.org/2000/svg">
<path d="M24.609 11.0259H25.7401C26.7547 11.0259 27.5801 10.2005 27.5801 9.18592L27.5801 5.34095C27.58 4.32639 26.7547 3.501 25.7401 3.50103L24.609 3.50103L24.609 2.46204C24.609 1.44755 23.7836 0.622093 22.769 0.622125L20.4742 0.622125C19.4574 0.62206 18.6342 1.44507 18.6343 2.46211L18.6343 4.75586L9.36585 4.75583L9.36585 2.46207C9.36592 1.44537 8.54294 0.621995 7.5259 0.622125L5.23104 0.62206C4.21654 0.622125 3.39112 1.44755 3.39109 2.46207L3.39109 3.50097L2.25996 3.50097C1.24543 3.50093 0.420007 4.32635 0.420007 5.34091L0.419974 9.18588C0.420104 10.2006 1.24543 11.0258 2.25996 11.0258L3.39109 11.0258V12.0648C3.39116 13.0792 4.21654 13.9046 5.23104 13.9047L7.52587 13.9047C8.54271 13.9047 9.36592 13.0817 9.36585 12.0647L9.36585 9.77093L18.6342 9.77093L18.6342 12.0647C18.6342 13.0814 19.4571 13.9048 20.4742 13.9046L22.769 13.9047C23.7835 13.9046 24.609 13.0792 24.609 12.0647L24.609 11.0259ZM25.7402 4.97288C25.9431 4.97288 26.1082 5.13798 26.1082 5.34088L26.1081 9.18579C26.1081 9.38869 25.9431 9.55382 25.7402 9.55382H24.609L24.6091 4.97285L25.7402 4.97288ZM2.25996 9.55392C2.05706 9.55392 1.89195 9.38882 1.89195 9.18592L1.89199 5.34101C1.89199 5.13811 2.05706 4.97298 2.25996 4.97298H3.39109L3.39106 9.55395L2.25996 9.55392ZM7.5259 12.4328H5.23111C5.02821 12.4328 4.86314 12.2676 4.86307 12.0648C4.86304 9.98131 4.86307 4.58107 4.86307 2.46211C4.86307 2.25921 5.02817 2.0941 5.23104 2.09407C7.72191 2.09414 7.63949 2.0553 7.78611 2.20193C7.9491 2.36492 7.89394 1.7153 7.89394 12.0648C7.89394 12.2677 7.72932 12.4328 7.5259 12.4328ZM9.36588 8.29902L9.36588 6.22775L18.6343 6.22774L18.6343 8.29902L9.36588 8.29902ZM22.769 12.4328C20.2782 12.4327 20.3606 12.4715 20.214 12.3249C20.0655 12.1764 20.1062 12.2955 20.1062 9.03499C20.1062 1.95343 20.06 2.35588 20.214 2.20186C20.3592 2.0566 20.2698 2.09407 22.769 2.09404C22.8705 2.09404 22.9625 2.13528 23.0291 2.20193C23.1814 2.35418 23.137 1.55287 23.137 12.0647C23.137 12.2676 22.9719 12.4327 22.769 12.4328Z" fill="#FF6301"/>
</svg>
