<svg width="28" height="24" viewBox="0 0 28 24" fill="none" xmlns="http://www.w3.org/2000/svg">
<path d="M24.609 16.0259H25.7401C26.7547 16.0259 27.5801 15.2005 27.5801 14.1859L27.5801 10.3409C27.58 9.32639 26.7547 8.501 25.7401 8.50103L24.609 8.50103L24.609 7.46204C24.609 6.44755 23.7836 5.62209 22.769 5.62213L20.4742 5.62212C19.4574 5.62206 18.6342 6.44507 18.6343 7.46211L18.6343 9.75586L9.36585 9.75583L9.36585 7.46207C9.36592 6.44537 8.54294 5.62199 7.5259 5.62212L5.23104 5.62206C4.21654 5.62213 3.39112 6.44755 3.39109 7.46207L3.39109 8.50096L2.25996 8.50096C1.24543 8.50093 0.420007 9.32635 0.420007 10.3409L0.419974 14.1859C0.420104 15.2006 1.24543 16.0258 2.25996 16.0258H3.39109L3.39109 17.0648C3.39116 18.0792 4.21654 18.9046 5.23104 18.9047L7.52587 18.9047C8.54271 18.9047 9.36592 18.0817 9.36585 17.0647L9.36585 14.7709L18.6342 14.7709V17.0647C18.6342 18.0814 19.4571 18.9048 20.4742 18.9046L22.769 18.9047C23.7835 18.9046 24.609 18.0792 24.609 17.0647L24.609 16.0259ZM25.7402 9.97288C25.9431 9.97288 26.1082 10.138 26.1082 10.3409L26.1081 14.1858C26.1081 14.3887 25.9431 14.5538 25.7402 14.5538H24.609L24.6091 9.97285L25.7402 9.97288ZM2.25996 14.5539C2.05706 14.5539 1.89195 14.3888 1.89195 14.1859L1.89199 10.341C1.89199 10.1381 2.05706 9.97298 2.25996 9.97298L3.39109 9.97298L3.39106 14.554L2.25996 14.5539ZM7.5259 17.4328H5.23111C5.02821 17.4328 4.86314 17.2676 4.86307 17.0648C4.86304 14.9813 4.86307 9.58107 4.86307 7.46211C4.86307 7.25921 5.02817 7.0941 5.23104 7.09407C7.72191 7.09414 7.63948 7.0553 7.78611 7.20193C7.9491 7.36492 7.89394 6.7153 7.89394 17.0648C7.89394 17.2677 7.72932 17.4328 7.5259 17.4328ZM9.36588 13.299L9.36588 11.2277L18.6343 11.2277L18.6343 13.299L9.36588 13.299ZM22.769 17.4328C20.2782 17.4327 20.3606 17.4715 20.214 17.3249C20.0655 17.1764 20.1062 17.2955 20.1062 14.035C20.1062 6.95343 20.06 7.35588 20.214 7.20186C20.3592 7.0566 20.2698 7.09407 22.769 7.09404C22.8705 7.09404 22.9625 7.13528 23.0291 7.20193C23.1814 7.35418 23.137 6.55287 23.137 17.0647C23.137 17.2676 22.9719 17.4327 22.769 17.4328Z" fill="#9C9C9C"/>
</svg>
