<svg width="28" height="24" viewBox="0 0 28 24" fill="none" xmlns="http://www.w3.org/2000/svg">
<path d="M9.40498 17.0645C9.40433 18.0856 8.57923 18.9044 7.56502 18.9044H5.27003C4.263 18.9057 3.43006 18.0855 3.43006 17.0645L3.43006 7.46231C3.43039 6.44784 4.25588 5.62235 5.27003 5.62235L7.56502 5.62235C8.57926 5.62232 9.40433 6.44114 9.40498 7.46231L9.40498 17.0645ZM2.37308 8.90615C2.37308 8.67138 2.15637 8.49779 1.92664 8.54629C1.0142 8.7388 0.459187 9.51584 0.459155 10.3408L0.459155 14.186C0.459154 15.0038 1.00705 15.787 1.92625 15.9806C2.15614 16.029 2.37305 15.8557 2.37308 15.6208L2.37308 8.90615ZM17.5559 10.4917C17.5555 10.0855 17.2261 9.75601 16.8198 9.75568L11.258 9.75568C10.8514 9.75568 10.5219 10.0852 10.5219 10.4917L10.5219 14.0351C10.5219 14.4403 10.8507 14.7705 11.258 14.7711L16.8198 14.7711C17.2264 14.7711 17.5559 14.4416 17.5559 14.0351V10.4917ZM25.7059 15.6207C25.7059 15.8556 25.923 16.0289 26.1529 15.9804C27.0719 15.7865 27.6185 15.0017 27.6186 14.186L27.6186 10.3408C27.6183 9.51815 27.066 8.73923 26.1525 8.54632C25.9228 8.49779 25.7059 8.67132 25.7059 8.90615L25.7059 15.6207ZM24.6477 7.46231C24.6474 6.44784 23.8222 5.62202 22.8077 5.62235L20.5127 5.62235C19.4986 5.62232 18.6735 6.44111 18.6728 7.46231L18.6728 17.0645C18.6734 18.0866 19.4996 18.9045 20.5127 18.9044H22.8077C23.8219 18.9044 24.6474 18.0789 24.6477 17.0645L24.6477 7.46231Z" fill="#FF6301"/>
</svg>
