<svg width="14" height="12" viewBox="0 0 14 12" fill="none" xmlns="http://www.w3.org/2000/svg">
<path d="M7.18659 11.3543L7.18648 11.3543C7.12801 11.3882 7.0628 11.4051 6.99734 11.4051C6.93207 11.4051 6.86647 11.3883 6.80771 11.3539C6.80764 11.3539 6.80756 11.3539 6.80749 11.3538L6.858 11.2675L7.18659 11.3543ZM7.18659 11.3543C7.3054 11.2853 8.73334 10.445 10.1329 9.13835C11.5277 7.83601 12.9188 6.04792 12.9188 4.08256C12.9187 2.15857 11.3469 0.594336 9.41564 0.594336C8.50777 0.594336 7.64702 0.945398 6.99729 1.56917L7.18659 11.3543ZM6.70531 2.36245L6.70539 2.36255C6.77709 2.45005 6.88417 2.50089 6.99729 2.50089C7.11041 2.50089 7.21749 2.45005 7.28919 2.36255L7.28925 2.36247C7.81642 1.71775 8.59135 1.3484 9.41564 1.3484C10.9319 1.3484 12.1647 2.57565 12.1647 4.08256C12.1647 5.64025 11.0864 7.13905 9.87886 8.32529C8.72211 9.46163 7.46691 10.2916 6.99736 10.5861C6.52838 10.2915 5.27506 9.46143 4.12006 8.32513C2.91431 7.13891 1.83763 5.64017 1.83763 4.08256C1.83763 2.57515 3.06426 1.3484 4.57165 1.3484C5.40101 1.3484 6.17855 1.71791 6.70531 2.36245Z" fill="white" stroke="white" stroke-width="0.2"/>
<path d="M8.28799 5.51021L8.28801 5.51019C8.34483 5.40356 8.45564 5.3368 8.5767 5.3368H10.4523C10.6331 5.3368 10.7794 5.4831 10.7794 5.66384V5.66386C10.7794 5.84459 10.6331 5.99089 10.4524 5.99089H8.77316L8.10446 7.24749L8.28799 5.51021ZM8.28799 5.51021L7.91501 6.21088L7.20736 3.6007L7.15908 3.61371L7.20734 3.60062L7.20735 3.60064C7.16961 3.46067 7.04407 3.36269 6.8995 3.35921L6.8995 3.3592M8.28799 5.51021L6.8995 3.3592M6.8995 3.3592L6.89874 3.35919M6.8995 3.3592L6.89874 3.35919M6.89874 3.35919C6.75641 3.35793 6.62504 3.44731 6.58044 3.58595L6.89874 3.35919ZM5.06241 5.99894L5.0624 5.99895C5.00077 6.0826 4.90306 6.1321 4.79895 6.1321H3.54852C3.36778 6.1321 3.22148 5.9858 3.22148 5.80507C3.22148 5.62434 3.36778 5.47803 3.54852 5.47803H4.63352L5.13329 4.79913L5.06241 5.99894ZM5.06241 5.99894L5.34319 5.61758L5.75653 6.44526L5.06241 5.99894ZM6.36048 6.39965L6.36047 6.39968C6.31963 6.52599 6.20644 6.61539 6.07397 6.62541C5.93747 6.63714 5.81531 6.56339 5.75657 6.44534L6.36048 6.39965ZM6.36048 6.39965L6.86471 4.83594M6.36048 6.39965L6.86471 4.83594M6.86471 4.83594L7.50019 7.17952L7.5002 7.17954C7.53531 7.3088 7.64576 7.40401 7.77904 7.41902L7.77953 7.41907C7.92016 7.43349 8.04439 7.3606 8.10444 7.24753L6.86471 4.83594Z" fill="white" stroke="white" stroke-width="0.1"/>
</svg>
