<svg width="21" height="20" viewBox="0 0 21 20" fill="none" xmlns="http://www.w3.org/2000/svg">
<path d="M19.5624 8.69992C19.5619 8.69947 19.5615 8.69901 19.561 8.69855L11.4017 0.539606C11.054 0.19167 10.5916 0 10.0997 0C9.60789 0 9.1455 0.191517 8.79757 0.539453L0.642593 8.69428C0.639846 8.69702 0.637099 8.69992 0.634352 8.70267C-0.0798317 9.42098 -0.0786109 10.5864 0.637862 11.3029C0.965197 11.6304 1.39752 11.8201 1.85976 11.8399C1.87853 11.8417 1.89745 11.8426 1.91653 11.8426H2.24172V17.8471C2.24172 19.0353 3.20847 20.002 4.39694 20.002H7.5891C7.91262 20.002 8.1751 19.7397 8.1751 19.416V14.7085C8.1751 14.1663 8.61612 13.7253 9.15832 13.7253H11.0411C11.5833 13.7253 12.0244 14.1663 12.0244 14.7085V19.416C12.0244 19.7397 12.2867 20.002 12.6104 20.002H15.8025C16.991 20.002 17.9577 19.0353 17.9577 17.8471V11.8426H18.2593C18.751 11.8426 19.2134 11.6511 19.5615 11.3032C20.2787 10.5855 20.279 9.41808 19.5624 8.69992Z" fill="#FF6301"/>
</svg>
