<svg width="21" height="20" viewBox="0 0 21 20" fill="none" xmlns="http://www.w3.org/2000/svg">
<path d="M19.3548 9.40657C19.6815 9.73426 19.6812 10.269 19.3541 10.5963C19.1935 10.7567 18.9854 10.8426 18.7593 10.8426H18.4577H17.4577V11.8426V17.8471C17.4577 18.4829 16.9388 19.002 16.3025 19.002H13.5244V14.7085C13.5244 13.614 12.6356 12.7253 11.5411 12.7253H9.65832C8.56384 12.7253 7.6751 13.614 7.6751 14.7085V19.002H4.89694C4.26066 19.002 3.74172 18.4829 3.74172 17.8471V11.8426V10.8426H2.74172H2.43657L2.42979 10.842L2.40264 10.8408C2.19015 10.8317 1.99506 10.7459 1.84513 10.5959L1.84497 10.5958C1.51847 10.2693 1.51767 9.73544 1.84349 9.40774L1.85078 9.40036L1.85295 9.39814L10.0047 1.24657L10.0047 1.24656C10.1651 1.08613 10.3732 1 10.5997 1C10.8261 1 11.0341 1.08615 11.1945 1.24656L11.1947 1.24673L19.3539 9.40566L19.3539 9.40568L19.3539 9.40569L19.3539 9.40571L19.354 9.40572L19.354 9.40573L19.354 9.40575L19.354 9.40576L19.354 9.40577L19.354 9.40579L19.354 9.4058L19.354 9.40581L19.354 9.40582L19.3541 9.40583L19.3541 9.40585L19.3541 9.40586L19.3541 9.40587L19.3541 9.40588L19.3541 9.40589L19.3541 9.4059L19.3541 9.40592L19.3542 9.40593L19.3542 9.40594L19.3542 9.40596L19.3542 9.40597L19.3542 9.40598L19.3542 9.40599L19.3542 9.406L19.3542 9.40602L19.3543 9.40603L19.3543 9.40604L19.3543 9.40605L19.3543 9.40607L19.3543 9.40608L19.3543 9.40609L19.3543 9.4061L19.3543 9.40612L19.3544 9.40613L19.3544 9.40614L19.3544 9.40615L19.3544 9.40616L19.3544 9.40618L19.3544 9.40619L19.3544 9.4062L19.3544 9.40622L19.3545 9.40623L19.3545 9.40624L19.3545 9.40625L19.3545 9.40626L19.3545 9.40627C19.3545 9.40629 19.3545 9.4063 19.3545 9.40631M19.3548 9.40657C19.3548 9.40654 19.3547 9.40651 19.3547 9.40648M19.3548 9.40657L19.3548 9.40656L19.3548 9.40655L19.3548 9.40653L19.3547 9.40652L19.3547 9.40651L19.3547 9.40648M19.3548 9.40657L19.3545 9.40631M19.3547 9.40648C19.3547 9.40646 19.3547 9.40643 19.3546 9.4064M19.3547 9.40648L19.3547 9.40647L19.3547 9.40646L19.3547 9.40645L19.3547 9.40643L19.3547 9.40642L19.3546 9.4064M19.3546 9.4064C19.3546 9.40637 19.3546 9.40634 19.3545 9.40631M19.3546 9.4064L19.3546 9.40639L19.3546 9.40637L19.3546 9.40636L19.3546 9.40635L19.3546 9.40633L19.3545 9.40631" stroke="#9C9C9C" stroke-width="2"/>
</svg>
