<svg width="22" height="22" viewBox="0 0 22 22" fill="none" xmlns="http://www.w3.org/2000/svg">
<g clip-path="url(#clip0_44_5054)">
<path d="M10.9998 3.66667C9.98875 3.66667 9.1665 2.84442 9.1665 1.83333C9.1665 0.82225 9.98875 0 10.9998 0C12.0109 0 12.8332 0.82225 12.8332 1.83333C12.8332 2.84442 12.0109 3.66667 10.9998 3.66667Z" fill="white"/>
<path d="M13.9793 7.33203H8.021C7.6415 7.33203 7.3335 7.02403 7.3335 6.64453C7.3335 5.50695 8.25933 4.58203 9.396 4.58203H12.6043C13.741 4.58203 14.6668 5.50695 14.6668 6.64453C14.6668 7.02403 14.3588 7.33203 13.9793 7.33203Z" fill="white"/>
<path d="M18.3335 18.332C19.0929 18.332 19.7085 17.7164 19.7085 16.957C19.7085 16.1976 19.0929 15.582 18.3335 15.582C17.5741 15.582 16.9585 16.1976 16.9585 16.957C16.9585 17.7164 17.5741 18.332 18.3335 18.332Z" fill="white"/>
<path d="M20.396 22H16.271C15.8915 22 15.5835 21.692 15.5835 21.3125C15.5835 20.1749 16.5093 19.25 17.646 19.25H19.021C20.1577 19.25 21.0835 20.1749 21.0835 21.3125C21.0835 21.692 20.7755 22 20.396 22Z" fill="white"/>
<path d="M11 18.332C11.7594 18.332 12.375 17.7164 12.375 16.957C12.375 16.1976 11.7594 15.582 11 15.582C10.2406 15.582 9.625 16.1976 9.625 16.957C9.625 17.7164 10.2406 18.332 11 18.332Z" fill="white"/>
<path d="M13.0625 22H8.9375C8.558 22 8.25 21.692 8.25 21.3125C8.25 20.1749 9.17583 19.25 10.3125 19.25H11.6875C12.8242 19.25 13.75 20.1749 13.75 21.3125C13.75 21.692 13.442 22 13.0625 22Z" fill="white"/>
<path d="M3.6665 18.332C4.4259 18.332 5.0415 17.7164 5.0415 16.957C5.0415 16.1976 4.4259 15.582 3.6665 15.582C2.90711 15.582 2.2915 16.1976 2.2915 16.957C2.2915 17.7164 2.90711 18.332 3.6665 18.332Z" fill="white"/>
<path d="M5.729 22H1.604C1.2245 22 0.916504 21.692 0.916504 21.3125C0.916504 20.1749 1.84234 19.25 2.979 19.25H4.354C5.49067 19.25 6.4165 20.1749 6.4165 21.3125C6.4165 21.692 6.1085 22 5.729 22Z" fill="white"/>
<path d="M16.5002 8.25H5.50016C4.99325 8.25 4.5835 8.66067 4.5835 9.16667C4.5835 9.67267 4.99325 10.0833 5.50016 10.0833H6.05475L6.65516 15.6842C6.71841 16.3139 7.20791 16.5 7.83858 16.5C8.06316 14.949 9.38866 13.75 11.0002 13.75C12.6117 13.75 13.9372 14.949 14.1617 16.5C14.7924 16.5 15.2819 16.3139 15.3452 15.6842L15.9456 10.0833H16.5002C17.0071 10.0833 17.4168 9.67267 17.4168 9.16667C17.4168 8.66067 17.0071 8.25 16.5002 8.25Z" fill="white"/>
</g>
<defs>
<clipPath id="clip0_44_5054">
<rect width="22" height="22" fill="white"/>
</clipPath>
</defs>
</svg>
