<svg width="29" height="26" viewBox="0 0 29 26" fill="none" xmlns="http://www.w3.org/2000/svg">
<path d="M17.0002 13.0195L27.61 2.89527C28.3005 2.23673 28.3005 1.17197 27.61 0.513434C26.9199 -0.145103 25.804 -0.145103 25.1139 0.513434L14.5037 10.6376L3.8939 0.513434C3.20343 -0.145103 2.08788 -0.145103 1.39774 0.513434C0.707265 1.17197 0.707265 2.23673 1.39774 2.89527L12.0076 13.0195L1.39774 23.1437C0.707265 23.8022 0.707265 24.867 1.39774 25.5255C1.74168 25.854 2.19391 26.019 2.64582 26.019C3.09773 26.019 3.54963 25.854 3.8939 25.5255L14.5037 15.4013L25.1139 25.5255C25.4582 25.854 25.9101 26.019 26.362 26.019C26.8139 26.019 27.2658 25.854 27.61 25.5255C28.3005 24.867 28.3005 23.8022 27.61 23.1437L17.0002 13.0195Z" fill="#FF6301"/>
</svg>
