<svg width="24" height="24" viewBox="0 0 24 24" fill="none" xmlns="http://www.w3.org/2000/svg">
<path d="M8.53477 4.97095C8.32697 4.96637 8.1229 5.02661 7.95095 5.14338C7.77899 5.26015 7.64769 5.42767 7.5753 5.62251C7.50291 5.81735 7.49302 6.02988 7.54701 6.2306C7.60101 6.43131 7.7162 6.61014 7.87657 6.74237L13.9957 11.9845L7.87657 17.2249C7.76563 17.3064 7.67272 17.4099 7.60366 17.529C7.5346 17.6481 7.49088 17.7803 7.47523 17.917C7.45958 18.0538 7.47234 18.1923 7.51272 18.324C7.55309 18.4556 7.62021 18.5775 7.70986 18.682C7.79952 18.7865 7.90978 18.8712 8.03375 18.9311C8.15772 18.991 8.29272 19.0247 8.43029 19.03C8.56787 19.0353 8.70506 19.0122 8.83327 18.962C8.96148 18.9119 9.07796 18.8358 9.1754 18.7385L16.1813 12.7443C16.2913 12.6504 16.3796 12.5339 16.4402 12.4025C16.5008 12.2712 16.5321 12.1283 16.5321 11.9836C16.5321 11.839 16.5008 11.696 16.4402 11.5647C16.3796 11.4334 16.2913 11.3167 16.1813 11.2228L9.1754 5.22285C8.99842 5.06565 8.77142 4.97651 8.53477 4.97095Z" fill="#D5D5D5"/>
</svg>
