<svg width="23" height="23" viewBox="0 0 23 23" fill="none" xmlns="http://www.w3.org/2000/svg">
<path d="M20.1915 10.7023C20.5086 9.90689 20.6741 9.05391 20.6741 8.18863V6.33386V6.28323L20.6235 6.28387C20.4088 6.28657 20.1695 6.28454 19.9169 6.28239C19.5656 6.2794 19.1887 6.27619 18.8173 6.28524C18.2021 6.30021 17.5879 6.3487 17.0966 6.48882C17.0279 5.43506 16.3562 4.43893 15.4076 3.97807C15.7304 3.16374 16.2826 2.50469 16.9568 2.14854L17.0011 2.12519L16.9777 2.08098L16.3765 0.943038L16.3532 0.898828L16.309 0.922183C15.8582 1.1603 15.4486 1.48739 15.0945 1.88119C14.9358 1.37596 14.6989 0.908324 14.3876 0.504626L14.3571 0.46503L14.3175 0.495559L13.2982 1.28141L13.2586 1.31194L13.2892 1.35154C13.7547 1.95537 13.9837 2.78419 13.9393 3.65906C12.432 3.69658 11.165 4.88925 10.9942 6.37838C10.2454 5.57743 9.31525 4.98418 8.30538 4.68437C7.88325 4.55901 7.46871 4.29887 7.10744 3.93036L7.07173 3.96536L7.10743 3.93036C6.03309 2.83464 4.55942 2.50154 3.43995 3.11974L3.43995 3.11974C2.29253 3.75346 1.79836 5.21178 2.19352 6.73838L2.19352 6.73838C2.31714 7.21575 2.32114 7.70735 2.20579 8.15998C1.99699 8.97921 1.97147 9.84392 2.12598 10.7023H1.45803C0.904546 10.7023 0.434822 11.1349 0.457597 11.6947C0.594458 15.0588 2.57345 18.0277 5.80374 19.2675V20.9923C5.80374 21.5722 6.27384 22.0423 6.85374 22.0423H16.1463C16.7262 22.0423 17.1963 21.5722 17.1963 20.9923V19.2675C20.428 18.0266 22.4054 15.0588 22.5424 11.6949C22.5652 11.135 22.0954 10.7023 21.5419 10.7023H20.1915ZM12.382 6.49712L12.382 6.49712L12.3822 6.49596C12.486 5.55104 13.4739 4.85745 14.398 5.08125L14.3991 5.0815C14.862 5.1821 15.2486 5.46216 15.4885 5.87071C15.7283 6.27922 15.7844 6.75332 15.6466 7.20655L15.6945 7.22109L15.6466 7.20655L14.584 10.7023H12.785C12.7649 9.82031 12.5551 8.94127 12.166 8.11308L12.382 6.49712ZM3.54986 8.50248L3.50141 8.49014L3.54986 8.50248C3.72293 7.82322 3.71808 7.09303 3.5363 6.39075C3.29755 5.46845 3.5399 4.64901 4.11062 4.33376C4.66498 4.02759 5.47138 4.24272 6.1171 4.90132C6.64117 5.43593 7.26111 5.82103 7.91062 6.01392L7.91062 6.01393L7.9115 6.01418C8.87747 6.28184 9.74928 6.95455 10.3802 7.81822C11.0007 8.66772 11.3854 9.69836 11.3986 10.7022H10.0602C10.0082 9.77011 9.48403 8.81063 8.74445 8.19636C7.99124 7.57078 7.00581 7.29715 6.06243 7.78746L6.06204 7.78766C5.07443 8.31204 4.75819 9.63533 5.0535 10.7022H3.54214C3.36937 9.95675 3.37085 9.20483 3.54986 8.50248ZM19.2887 7.67084C19.3216 8.75298 19.1789 9.74683 18.6666 10.7022H16.0336L16.8483 8.02236C17.459 7.78897 18.1031 7.67084 18.7694 7.67084H19.2887ZM8.66825 10.7023H6.51796C6.36321 10.3484 6.30739 9.98579 6.34386 9.68113C6.38137 9.36769 6.51522 9.12228 6.73136 9.00261C7.11311 8.80493 7.57672 8.98358 7.96433 9.35503C8.33606 9.71126 8.61956 10.2294 8.66825 10.7023ZM15.8093 20.6552H7.19076V19.4682H15.8093V20.6552ZM19.8027 15.6059C18.9445 16.7744 17.7673 17.6284 16.3932 18.0812H6.6065C4.01577 17.2616 2.07398 14.7932 1.87769 12.0893H21.1217C21.0167 13.361 20.5661 14.5666 19.8027 15.6059Z" fill="#9C9C9C" stroke="#9C9C9C" stroke-width="0.1"/>
</svg>
