<svg width="24" height="23" viewBox="0 0 24 23" fill="none" xmlns="http://www.w3.org/2000/svg">
<path d="M20.6915 10.7042C21.0086 9.90884 21.1741 9.05586 21.1741 8.19058V6.33582V6.28518L21.1235 6.28582C20.9088 6.28853 20.6695 6.28649 20.4169 6.28434C20.0656 6.28135 19.6887 6.27815 19.3173 6.28719C18.7021 6.30217 18.0879 6.35065 17.5966 6.49078C17.5279 5.43701 16.8562 4.44088 15.9076 3.98002C16.2304 3.1657 16.7826 2.50664 17.4568 2.1505L17.5011 2.12714L17.4777 2.08293L16.8765 0.944991L16.8532 0.900782L16.809 0.924136C16.3582 1.16225 15.9486 1.48934 15.5945 1.88314C15.4358 1.37792 15.1989 0.910277 14.8876 0.506579L14.8571 0.466983L14.8175 0.497512L13.7982 1.28337L13.7586 1.3139L13.7892 1.35349C14.2547 1.95732 14.4837 2.78614 14.4393 3.66101C12.932 3.69854 11.665 4.8912 11.4942 6.38033C10.7454 5.57938 9.81525 4.98613 8.80538 4.68632C8.38325 4.56096 7.96871 4.30082 7.60744 3.93231L7.57173 3.96732L7.60743 3.93231C6.53309 2.8366 5.05942 2.5035 3.93995 3.12169L3.93995 3.12169C2.79253 3.75541 2.29836 5.21373 2.69352 6.74033L2.69352 6.74033C2.81714 7.2177 2.82114 7.70931 2.70579 8.16193C2.49699 8.98116 2.47147 9.84588 2.62598 10.7042H1.95803C1.40455 10.7042 0.934822 11.1369 0.957597 11.6967C1.09446 15.0607 3.07345 18.0297 6.30374 19.2694V20.9942C6.30374 21.5741 6.77384 22.0442 7.35374 22.0442H16.6463C17.2262 22.0442 17.6963 21.5741 17.6963 20.9942V19.2694C20.928 18.0285 22.9054 15.0608 23.0424 11.6968C23.0652 11.137 22.5954 10.7042 22.0419 10.7042H20.6915ZM12.882 6.49907L12.882 6.49907L12.8822 6.49791C12.986 5.55299 13.9739 4.8594 14.898 5.08321L14.8991 5.08346C15.362 5.18405 15.7486 5.46411 15.9885 5.87266C16.2283 6.28118 16.2844 6.75528 16.1466 7.2085L16.1945 7.22304L16.1466 7.2085L15.084 10.7042H13.285C13.2649 9.82227 13.0551 8.94322 12.666 8.11503L12.882 6.49907ZM4.04986 8.50444L4.00141 8.49209L4.04986 8.50443C4.22293 7.82517 4.21808 7.09498 4.0363 6.3927C3.79755 5.47041 4.0399 4.65097 4.61062 4.33571C5.16498 4.02955 5.97138 4.24467 6.6171 4.90328C7.14117 5.43788 7.76111 5.82298 8.41062 6.01587L8.41062 6.01588L8.4115 6.01613C9.37747 6.28379 10.2493 6.9565 10.8802 7.82017C11.5007 8.66967 11.8854 9.70031 11.8986 10.7042H10.5602C10.5082 9.77207 9.98403 8.81259 9.24445 8.19832C8.49124 7.57273 7.50581 7.2991 6.56243 7.78941L6.56204 7.78962C5.57443 8.31399 5.25819 9.63728 5.5535 10.7042H4.04214C3.86937 9.9587 3.87085 9.20679 4.04986 8.50444ZM19.7887 7.67279C19.8216 8.75494 19.6789 9.74878 19.1666 10.7042H16.5336L17.3483 8.02432C17.959 7.79092 18.6031 7.67279 19.2694 7.67279H19.7887ZM9.16825 10.7042H7.01796C6.86321 10.3503 6.80739 9.98774 6.84386 9.68309C6.88137 9.36963 7.01523 9.12422 7.23139 9.00455C7.61313 8.8069 8.07673 8.98554 8.46433 9.35698C8.83606 9.71322 9.11956 10.2314 9.16825 10.7042ZM16.3093 20.6572H7.69076V19.4702H16.3093V20.6572ZM20.3027 15.6079C19.4445 16.7763 18.2673 17.6303 16.8932 18.0831H7.1065C4.51577 17.2636 2.57398 14.7951 2.37769 12.0913H21.6217C21.5167 13.363 21.0661 14.5686 20.3027 15.6079Z" fill="#FF6301" stroke="#FF6301" stroke-width="0.1"/>
</svg>
