<svg width="23" height="21" viewBox="0 0 23 21" fill="none" xmlns="http://www.w3.org/2000/svg">
<path d="M6.28418 19.2734H16.3122V19.8959C16.3122 20.4482 15.8645 20.8959 15.3122 20.8959H7.28418C6.73189 20.8959 6.28418 20.4482 6.28418 19.8959V19.2734Z" fill="#FF6301"/>
<path d="M20.0526 9.64063C20.7495 8.31332 20.7469 7.13224 20.7234 5.64453H19.5104C18.678 5.64453 17.8848 5.81082 17.1625 6.11246L16.0986 9.64063H20.0526Z" fill="#FF6301"/>
<path d="M14.752 9.63961L15.8717 5.95676C16.147 5.10692 15.7717 4.11525 15.0166 3.65105C15.2957 2.79903 15.8869 1.98206 16.6722 1.5718L16.0698 0.431836C15.5989 0.680625 15.1726 1.02738 14.8082 1.44762C14.6514 0.913945 14.4078 0.421523 14.0825 0L13.0616 0.787187C13.6022 1.48255 13.8017 2.46211 13.7065 3.34812C12.8054 3.43527 12.022 4.19091 11.9182 5.09781L11.7119 6.64125C12.2172 7.59043 12.4922 8.61308 12.5214 9.63961H14.752Z" fill="#FF6301"/>
<path d="M6.14373 7.78916C5.64916 8.06201 5.53615 8.86509 5.84681 9.63853H8.32869C8.21138 8.56367 7.01105 7.33274 6.14373 7.78916Z" fill="#FF6301"/>
<path d="M2.70194 9.64004H4.49417C4.18939 8.54687 4.52494 7.18966 5.52117 6.66188C7.4169 5.67626 9.49951 7.7214 9.6255 9.64004H11.2308C11.1881 7.46458 9.54394 5.19282 7.46542 4.61188C6.79214 4.41165 6.14761 4.01161 5.60147 3.45473C4.89593 2.73501 3.99616 2.48665 3.3628 2.83641C2.71097 3.19649 2.44843 4.11516 2.70925 5.12235C2.89831 5.85282 2.90347 6.61208 2.72343 7.31762C2.53394 8.06008 2.52792 8.85328 2.70194 9.64004Z" fill="#FF6301"/>
<path d="M1.35264 10.9297C0.779783 10.9297 0.318215 11.4126 0.429411 11.9746C0.975305 14.7334 3.05982 17.1398 5.759 17.9869H16.8387C19.5378 17.1399 21.6224 14.7334 22.1683 11.9746C22.2794 11.4126 21.8179 10.9297 21.245 10.9297H1.35264Z" fill="#FF6301"/>
</svg>
