<svg width="20" height="20" viewBox="0 0 20 20" fill="none" xmlns="http://www.w3.org/2000/svg">
<g clip-path="url(#clip0_44_5024)">
<path d="M9.41906 6.95383L5.58965 5.61328C5.58965 6.83724 5.57929 6.82857 5.61778 6.94406C5.67084 7.10984 5.79653 7.24749 5.96512 7.31212C10.1376 8.9171 9.84428 8.82224 10.0001 8.82224C10.1545 8.82224 9.85752 8.91886 14.0346 7.31212C14.2584 7.22612 14.4105 7.0113 14.4105 6.76511V5.67736L10.556 6.96243C10.1862 7.0857 9.78629 7.08261 9.41906 6.95383Z" fill="white"/>
<path d="M3.77764 3.71323C3.91869 3.80669 3.4469 3.62161 9.8064 5.84733C9.9285 5.89054 10.0612 5.89156 10.1854 5.85045C12.4009 5.11188 13.8165 4.63997 15.5921 4.04808V7.35354C15.5921 7.5153 15.6578 7.66221 15.764 7.76809C16.1313 8.13536 16.7643 7.8739 16.7643 7.35354C16.7643 3.35741 16.7632 3.26703 16.7631 3.26754C16.7807 3.0176 16.6232 2.76563 16.3634 2.67901C10.1066 0.593555 10.1391 0.589844 10.0002 0.589844C9.85606 0.589844 9.89794 0.591055 3.92299 2.68174C3.47726 2.83771 3.3888 3.43516 3.77764 3.71323Z" fill="white"/>
<path d="M3.52588 12.9375H4.70741V14.1186H3.52588V12.9375Z" fill="white"/>
<path d="M19.4139 3.23438H17.9362V7.35292C17.9362 8.32268 17.1474 9.11114 16.178 9.11114C15.554 9.11114 15.0051 8.7845 14.6929 8.29337C14.5315 8.38492 14.7996 8.27325 10.6314 9.87656C10.2321 10.0303 9.78257 10.0356 9.3686 9.87656L5.54427 8.40551C4.8652 8.14408 4.41744 7.49268 4.41744 6.7645V5.20281L3.53559 4.89375C2.83113 4.6476 2.35797 3.98064 2.35797 3.23438H0.586075C0.262562 3.23438 0 3.49694 0 3.82045V16.473C0 16.7965 0.262562 17.0591 0.586075 17.0591H5.88368V18.2402H4.1162C3.79269 18.2402 3.53012 18.5028 3.53012 18.8263C3.53012 19.1502 3.79269 19.4124 4.1162 19.4124H15.8838C16.2073 19.4124 16.4699 19.1502 16.4699 18.8263C16.4699 18.5028 16.2073 18.2402 15.8838 18.2402H14.1163V17.0591H19.4139C19.7374 17.0591 20 16.7965 20 16.473V3.82045C20 3.49694 19.7374 3.23438 19.4139 3.23438ZM5.87911 14.7054C5.87911 15.0293 5.61655 15.2915 5.29304 15.2915H2.93936C2.61585 15.2915 2.35329 15.0293 2.35329 14.7054V12.3521C2.35329 12.0282 2.61585 11.7661 2.93936 11.7661H5.29304C5.61655 11.7661 5.87911 12.0282 5.87911 12.3521V14.7054ZM17.0606 15.2915H7.64632C7.32281 15.2915 7.06025 15.0293 7.06025 14.7054C7.06025 14.3819 7.32281 14.1193 7.64632 14.1193H17.0606C17.3842 14.1193 17.6467 14.3819 17.6467 14.7054C17.6467 15.0293 17.3842 15.2915 17.0606 15.2915ZM17.0606 12.9382H7.64632C7.32281 12.9382 7.06025 12.6757 7.06025 12.3521C7.06025 12.0282 7.32281 11.7661 7.64632 11.7661H17.0606C17.3842 11.7661 17.6467 12.0282 17.6467 12.3521C17.6467 12.6757 17.3842 12.9382 17.0606 12.9382Z" fill="white"/>
</g>
<defs>
<clipPath id="clip0_44_5024">
<rect width="20" height="20" fill="white"/>
</clipPath>
</defs>
</svg>
