<svg width="145" height="185" viewBox="0 0 145 185" fill="none" xmlns="http://www.w3.org/2000/svg">
<g clip-path="url(#clip0_289_3359)">
<path d="M171.179 102.657L99.0103 81.7061L14.6929 57.2283L10.4417 59.5666L10.7868 62.2497C11.698 69.3318 13.9942 75.8248 17.4273 81.0259C21.3407 86.9545 26.6519 91.0295 32.7877 92.8108L98.6104 111.919L101.131 103.238L164.536 125.544C170.589 127.301 177.439 123.836 179.301 117.423C181.132 111.113 177.489 104.489 171.179 102.657Z" fill="white"/>
<path d="M73.5228 112.907L58.5569 164.459C56.7253 170.768 60.3684 177.392 66.6778 179.223C72.6716 180.963 79.549 177.625 81.4426 171.103L96.4085 119.55L73.5228 112.907Z" fill="white"/>
<path d="M124.571 22.5447L116.081 51.7877L108.452 49.5732L116.942 20.3299L109.313 18.1153L100.824 47.3582L93.195 45.1435L101.685 15.9005L94.0563 13.686L82.983 51.8294C81.6284 56.4956 82.0294 61.4816 84.1118 65.8696C84.6396 66.9812 84.9779 68.1741 85.1271 69.4037L109.905 76.5968C110.689 75.6378 111.614 74.8117 112.655 74.1556C116.763 71.5655 119.772 67.5689 121.126 62.9026L132.2 24.7594L124.571 22.5447Z" fill="white"/>
</g>
<defs>
<clipPath id="clip0_289_3359">
<rect width="135.515" height="135.515" fill="white" transform="translate(0 65.3096) rotate(-28.8117)"/>
</clipPath>
</defs>
</svg>
