<svg width="112" height="103" viewBox="0 0 112 103" fill="none" xmlns="http://www.w3.org/2000/svg">
<path d="M1.18728 25.5187C29.2011 -0.313128 71.2872 -6.96176 111.474 8.09617C99.1301 38.9954 75.9325 60.9268 51.0627 78.7519C37.9361 88.1607 24.0126 96.7147 8.12718 100.533C-7.75827 104.352 -25.9075 103.089 -42.5201 93.6863C-3.31031 71.1274 35.8995 48.5684 75.1093 26.0095C68.1079 30.038 59.1787 31.7847 51.6741 34.9275C43.6682 38.2788 35.7885 41.9 28.046 45.785C12.4128 53.6269 -2.66273 62.5422 -17.0886 72.4785C-25.0444 77.9574 -32.7024 83.8518 -40.3381 89.8093C-30.908 65.7087 -16.4743 41.8053 1.18728 25.5187Z" fill="white"/>
</svg>
