<svg width="123" height="152" viewBox="0 0 123 152" fill="none" xmlns="http://www.w3.org/2000/svg">
<g clip-path="url(#clip0_289_3349)">
<path d="M-22.415 68.6631L-43.9243 114.652C-45.9031 118.883 -44.0676 123.926 -39.8443 125.902L-1.52033 143.826L23.5738 90.1723L-22.415 68.6631Z" fill="white"/>
<path d="M99.2318 88.1919L74.9804 76.8494C77.2759 76.4751 79.3226 75.9938 80.8598 75.4236C89.9526 72.1004 94.6846 61.9829 91.4064 52.8737C88.2293 44.008 77.752 39.1264 68.9256 42.3593C64.0396 44.1377 48.8763 53.5894 45.8541 63.2269L45.3023 62.9688C50.7542 54.4677 48.2885 36.7708 46.529 31.8843C43.3447 23.0339 32.8746 18.137 24.0482 21.3699C14.963 24.6967 10.231 34.8142 13.4938 43.9162C14.0492 45.465 14.9918 47.3445 16.176 49.3463L-8.07539 38.0037C-12.2987 36.0285 -17.3498 37.8604 -19.3251 42.0837L-24.7024 53.5809C-25.6918 55.6963 -24.7779 58.2163 -22.6624 59.2057L27.1588 82.5073L34.3285 67.1777L49.6581 74.3475L42.4884 89.6771L92.3096 112.979C94.4251 113.968 96.945 113.054 97.9344 110.939L103.312 99.4416C105.287 95.2183 103.463 90.1707 99.2318 88.1919ZM37.5795 59.0485C37.5795 59.0485 37.1393 59.1509 36.0432 58.6382C30.7468 56.1611 23.2109 45.9293 21.4632 41.0577C19.7644 36.3211 22.2308 31.0477 26.9552 29.3153C29.2425 28.4794 31.7058 28.5852 33.8979 29.6105C36.0824 30.6322 37.7427 32.455 38.5674 34.7463C41.3029 42.3593 40.2293 58.0366 37.5795 59.0485ZM55.1055 67.5538C54.0171 67.0448 53.8099 66.6489 53.8135 66.6413C52.8916 63.9588 64.236 53.0852 71.8326 50.3047C76.3805 48.6298 81.7914 51.1418 83.4448 55.7357C85.1512 60.4759 82.6848 65.7493 77.9527 67.4782C73.0934 69.2597 60.4096 70.0345 55.1055 67.5538Z" fill="white"/>
<path d="M38.9033 97.3418L13.8092 150.995L52.1332 168.92C56.3642 170.899 61.4041 169.071 63.3829 164.84L84.8921 118.851L38.9033 97.3418Z" fill="white"/>
</g>
<defs>
<clipPath id="clip0_289_3349">
<rect width="135.387" height="135.387" fill="white" transform="translate(0.357422 0.000976562) rotate(25.0658)"/>
</clipPath>
</defs>
</svg>
