<svg width="107" height="170" viewBox="0 0 107 170" fill="none" xmlns="http://www.w3.org/2000/svg">
<g clip-path="url(#clip0_289_3347)">
<path d="M129.44 89.4899C134.773 85.3247 142.416 86.2894 146.556 91.5836L155.925 103.564C160.042 108.815 159.161 116.512 153.831 120.68L103.707 159.877C98.4096 164.017 90.7306 163.077 86.5907 157.783L77.2222 145.803C73.0817 140.509 73.988 132.859 79.3159 128.687L129.44 89.4899ZM115.558 159.501C114.333 160.459 114.311 162.299 115.502 163.3C120.232 167.277 126.554 167.003 130.861 163.635L150.933 147.938C155.202 144.6 157.053 138.543 154.311 132.954C153.626 131.557 151.836 131.132 150.609 132.091L115.558 159.501ZM61.8566 73.7725C59.7373 75.4325 59.3624 78.4974 61.019 80.6194L83.7234 109.653C85.3831 111.775 88.448 112.15 90.5704 110.49L109.067 96.026C111.182 94.3719 111.564 91.3078 109.904 89.179L87.2001 60.1456C85.5404 58.0233 82.4754 57.6484 80.3531 59.308L61.8566 73.7725ZM55.3604 10.2913C56.587 9.33218 56.6055 7.4916 55.4137 6.48935C50.6495 2.48374 44.3215 2.83389 40.0633 6.16356L19.9912 21.8601C15.698 25.2199 13.8864 31.2825 16.6084 36.8385C17.293 38.2359 19.084 38.6596 20.3098 37.7009L55.3604 10.2913ZM17.0927 49.1189C11.7984 53.2618 10.856 60.9404 14.9989 66.2347L24.3675 78.2148C28.5073 83.5091 36.1497 84.4737 41.4833 80.3086L91.6075 41.111C96.9406 36.9351 97.8373 29.2837 93.7013 23.9952L84.3328 12.0151C80.1929 6.72115 72.5139 5.78179 67.2169 9.92131L17.0927 49.1189Z" fill="white"/>
</g>
<defs>
<clipPath id="clip0_289_3347">
<rect width="152.417" height="152.417" fill="white" transform="translate(0.564453 151.289) rotate(-83.0257)"/>
</clipPath>
</defs>
</svg>
