<svg width="18" height="21" viewBox="0 0 18 21" fill="none" xmlns="http://www.w3.org/2000/svg">
<path d="M16.6025 6.99211L14.9034 6.37366C15.5105 5.74304 15.7543 4.85444 15.5415 3.98861C15.3255 3.10983 14.6808 2.42423 13.8177 2.15447C12.9538 1.88432 12.0334 2.08104 11.3553 2.68064L10.2386 3.6678L10.0175 2.18549C9.88321 1.29061 9.30481 0.548473 8.47001 0.200179C7.63481 -0.148115 6.69987 -0.0373833 5.96952 0.497034C5.26036 1.01574 4.86966 1.87293 4.92581 2.74229L3.33866 2.16468C2.85215 1.98759 2.32519 2.01076 1.85478 2.23026C1.38437 2.44976 1.02783 2.8385 0.850738 3.32501L0.0465596 5.53532C-0.0233347 5.72733 -0.0143034 5.93505 0.0720829 6.12C0.158469 6.30533 0.311608 6.44551 0.503622 6.51541C0.571553 6.54015 3.30843 7.53634 5.77829 8.43515C6.92605 8.85294 8.01609 9.24954 8.75351 9.51812H0.880187C0.458465 9.51812 0.115276 9.86131 0.115276 10.283V18.5168C0.115276 19.5872 0.986207 20.4578 2.05622 20.4578H13.8189C14.8893 20.4578 15.7598 19.5868 15.7598 18.5168V12.0685L15.9778 12.1478C16.1694 12.2177 16.3767 12.2087 16.5617 12.1227C16.7474 12.0367 16.888 11.8831 16.9582 11.6907L17.7628 9.48003C18.1288 8.47441 17.6085 7.35807 16.6025 6.99211ZM14.2304 11.5117V18.5168C14.2304 18.7438 14.0459 18.9283 13.8189 18.9283H9.87889V11.0479H12.9562L14.2304 11.5117ZM13.7439 5.37001C13.4553 5.62916 13.065 5.70456 12.6998 5.57184L11.0667 4.97734L12.3684 3.82644C12.6417 3.58495 13.0127 3.50563 13.3607 3.6144C13.7089 3.72317 13.9689 3.99961 14.0561 4.35418C14.1487 4.73153 14.0321 5.11124 13.7439 5.3704V5.37001ZM16.0795 8.42965C16.1823 8.46735 16.2648 8.54274 16.3115 8.64248C16.3583 8.74221 16.363 8.85412 16.3257 8.957L15.7826 10.4491L10.588 8.55845L11.2717 6.67994L16.0795 8.42965ZM1.74523 5.33977L2.28828 3.84804C2.36603 3.63482 2.60242 3.52448 2.81563 3.60223C3.37282 3.80524 6.80943 5.05587 7.62342 5.35194L6.93979 7.23045L1.74523 5.33977ZM6.87265 1.73157C7.05367 1.59924 7.2661 1.53131 7.48089 1.53131C7.61518 1.53131 7.75065 1.55801 7.88023 1.61181C8.21713 1.75238 8.45037 2.05159 8.50456 2.41245L8.76215 4.139L7.12906 3.54451C6.76427 3.41179 6.51375 3.10197 6.45878 2.71598C6.40381 2.3296 6.55852 1.96167 6.87265 1.73197V1.73157ZM8.37734 7.75348L9.06097 5.87497L9.83413 6.15651L9.1505 8.03502L8.37734 7.75348ZM8.34907 11.0479V18.9283H7.52604V11.0479H8.34907ZM5.99661 11.0479V18.9283H2.05661C1.82965 18.9283 1.6451 18.7438 1.6451 18.5168V11.0479H5.99661Z" fill="#FF6301"/>
</svg>
