<svg width="18" height="21" viewBox="0 0 18 21" fill="none" xmlns="http://www.w3.org/2000/svg">
<path d="M15.4986 3.92956C15.2935 3.09521 14.6812 2.44369 13.8609 2.18762C13.0366 1.92982 12.1653 2.11789 11.5231 2.68741L10.502 3.59001L15.3958 5.37118C15.5685 4.9174 15.619 4.41984 15.4986 3.92956Z" fill="#FF6301"/>
<path d="M9.86055 2.084C9.73285 1.23442 9.1832 0.52157 8.39047 0.190492C7.59774 -0.141146 6.71005 -0.0351177 6.01515 0.472314C5.60799 0.770088 5.32713 1.19168 5.16797 1.65034L10.0625 3.43182L9.86055 2.084Z" fill="#FF6301"/>
<path d="M7.31738 10.0938V20.47H8.51736V10.5305L7.31738 10.0938Z" fill="#FF6301"/>
<path d="M0.717174 9.71094C0.385536 9.71094 0.117188 9.97929 0.117188 10.3109V18.6707C0.117188 19.6632 0.924592 20.4706 1.91715 20.4706H6.11701V9.71094H0.717174Z" fill="#FF6301"/>
<path d="M9.7168 10.9688V20.4715H13.9167C14.9092 20.4715 15.7166 19.6641 15.7166 18.6715V13.1525L9.7168 10.9688Z" fill="#FF6301"/>
<path d="M9.36504 4.4548L7.72363 8.96484L8.85162 9.37537L10.493 4.86533L9.36504 4.4548Z" fill="#FF6301"/>
<path d="M16.6951 7.12408L11.6211 5.27734L9.97949 9.78742L16.1813 12.0447C16.2487 12.0693 16.3184 12.081 16.3864 12.081C16.6313 12.081 16.8615 11.9298 16.95 11.686L17.7708 9.43083C18.1123 8.49409 17.6281 7.46407 16.6951 7.12408Z" fill="#FF6301"/>
<path d="M3.16418 2.19573C2.23316 1.85522 1.19907 2.33247 0.856793 3.27149L0.0365149 5.5267C-0.0771494 5.83783 0.0834119 6.18238 0.395099 6.29544L6.5967 8.55262L8.23838 4.04255L3.16418 2.19573Z" fill="#FF6301"/>
</svg>
