<svg width="21" height="20" viewBox="0 0 21 20" fill="none" xmlns="http://www.w3.org/2000/svg">
<path d="M2.84375 4.6875H5.45168C5.18488 4.22746 5.03125 3.69398 5.03125 3.125C5.03125 1.40188 6.43313 0 8.15625 0C9.08895 0 9.92691 0.411211 10.5 1.06129C11.073 0.411211 11.9111 0 12.8438 0C14.5669 0 15.9688 1.40188 15.9688 3.125C15.9688 3.69398 15.8152 4.22746 15.5483 4.6875H18.1562C19.4486 4.6875 20.5 5.73891 20.5 7.03125V10.7812H18.9375V17.6562C18.9375 18.9486 17.8861 20 16.5938 20H4.40625C3.11391 20 2.0625 18.9486 2.0625 17.6562V10.7812H0.5V7.03125C0.5 5.73891 1.55141 4.6875 2.84375 4.6875ZM11.2812 18.4375H16.5938C17.0245 18.4375 17.375 18.087 17.375 17.6562V10.7812H11.2812V18.4375ZM11.2812 9.21875H18.9375V7.03125C18.9375 6.60047 18.587 6.25 18.1562 6.25H11.2812V9.21875ZM11.2812 4.6875H12.8438C13.7053 4.6875 14.4062 3.98656 14.4062 3.125C14.4062 2.26344 13.7053 1.5625 12.8438 1.5625C11.9822 1.5625 11.2812 2.26344 11.2812 3.125V4.6875ZM9.71875 3.125C9.71875 2.26344 9.01781 1.5625 8.15625 1.5625C7.29469 1.5625 6.59375 2.26344 6.59375 3.125C6.59375 3.98656 7.29469 4.6875 8.15625 4.6875H9.71875V3.125ZM3.625 17.6562C3.625 18.087 3.97547 18.4375 4.40625 18.4375H9.71875V10.7812H3.625V17.6562ZM2.0625 9.21875H9.71875V6.25H2.84375C2.41297 6.25 2.0625 6.60047 2.0625 7.03125V9.21875Z" fill="#FF6301"/>
</svg>
