<svg width="12" height="12" viewBox="0 0 12 12" fill="none" xmlns="http://www.w3.org/2000/svg">
<g clip-path="url(#clip0_44_5497)">
<path d="M2.99988 0.375C1.55276 0.375 0.374884 1.72088 0.374884 3.375C0.36199 3.91899 0.494137 4.4566 0.757752 4.93263C1.02137 5.40865 1.40695 5.80592 1.87488 6.08362V10.5C1.87488 10.7984 1.99341 11.0845 2.20439 11.2955C2.41537 11.5065 2.70152 11.625 2.99988 11.625C3.29825 11.625 3.5844 11.5065 3.79538 11.2955C4.00636 11.0845 4.12488 10.7984 4.12488 10.5V6.08362C4.59282 5.80592 4.9784 5.40865 5.24202 4.93263C5.50563 4.4566 5.63778 3.91899 5.62488 3.375C5.62488 1.72088 4.44701 0.375 2.99988 0.375ZM3.60663 5.50087C3.53806 5.52922 3.47943 5.57728 3.43818 5.63896C3.39692 5.70064 3.3749 5.77317 3.37488 5.84737V10.5C3.37488 10.5995 3.33538 10.6948 3.26505 10.7652C3.19472 10.8355 3.09934 10.875 2.99988 10.875C2.90043 10.875 2.80505 10.8355 2.73472 10.7652C2.66439 10.6948 2.62488 10.5995 2.62488 10.5V5.84737C2.62487 5.77317 2.60285 5.70064 2.56159 5.63896C2.52034 5.57728 2.46171 5.52922 2.39313 5.50087C1.99783 5.30833 1.66729 5.00465 1.44202 4.62704C1.21675 4.24944 1.10654 3.81431 1.12488 3.375C1.12488 2.13412 1.96601 1.125 2.99988 1.125C4.03376 1.125 4.87488 2.13412 4.87488 3.375C4.89323 3.81431 4.78302 4.24944 4.55775 4.62704C4.33247 5.00465 4.00193 5.30833 3.60663 5.50087Z" fill="white"/>
<path d="M11.25 0.375C11.1505 0.375 11.0552 0.414509 10.9848 0.484835C10.9145 0.555161 10.875 0.650544 10.875 0.75V4.5C10.875 4.79837 10.7565 5.08452 10.5455 5.2955C10.3345 5.50647 10.0484 5.625 9.75 5.625C9.65054 5.625 9.55516 5.66451 9.48483 5.73484C9.41451 5.80516 9.375 5.90054 9.375 6V10.5C9.375 10.5995 9.33549 10.6948 9.26517 10.7652C9.19484 10.8355 9.09946 10.875 9 10.875C8.90054 10.875 8.80516 10.8355 8.73483 10.7652C8.66451 10.6948 8.625 10.5995 8.625 10.5V6C8.625 5.90054 8.58549 5.80516 8.51517 5.73484C8.44484 5.66451 8.34946 5.625 8.25 5.625C7.95163 5.625 7.66548 5.50647 7.4545 5.2955C7.24353 5.08452 7.125 4.79837 7.125 4.5V0.75C7.125 0.650544 7.08549 0.555161 7.01517 0.484835C6.94484 0.414509 6.84946 0.375 6.75 0.375C6.65054 0.375 6.55516 0.414509 6.48483 0.484835C6.41451 0.555161 6.375 0.650544 6.375 0.75V4.5C6.37548 4.9321 6.52494 5.35081 6.79819 5.68554C7.07143 6.02027 7.45175 6.25053 7.875 6.3375V10.5C7.875 10.7984 7.99353 11.0845 8.2045 11.2955C8.41548 11.5065 8.70163 11.625 9 11.625C9.29837 11.625 9.58452 11.5065 9.7955 11.2955C10.0065 11.0845 10.125 10.7984 10.125 10.5V6.3375C10.5483 6.25053 10.9286 6.02027 11.2018 5.68554C11.4751 5.35081 11.6245 4.9321 11.625 4.5V0.75C11.625 0.650544 11.5855 0.555161 11.5152 0.484835C11.4448 0.414509 11.3495 0.375 11.25 0.375Z" fill="white"/>
<path d="M8.25 4.875C8.34946 4.875 8.44484 4.83549 8.51517 4.76516C8.58549 4.69484 8.625 4.59946 8.625 4.5V0.75C8.625 0.650544 8.58549 0.555161 8.51517 0.484835C8.44484 0.414509 8.34946 0.375 8.25 0.375C8.15054 0.375 8.05516 0.414509 7.98483 0.484835C7.91451 0.555161 7.875 0.650544 7.875 0.75V4.5C7.875 4.59946 7.91451 4.69484 7.98483 4.76516C8.05516 4.83549 8.15054 4.875 8.25 4.875Z" fill="white"/>
<path d="M9.75 4.875C9.84946 4.875 9.94484 4.83549 10.0152 4.76516C10.0855 4.69484 10.125 4.59946 10.125 4.5V0.75C10.125 0.650544 10.0855 0.555161 10.0152 0.484835C9.94484 0.414509 9.84946 0.375 9.75 0.375C9.65054 0.375 9.55516 0.414509 9.48483 0.484835C9.41451 0.555161 9.375 0.650544 9.375 0.75V4.5C9.375 4.59946 9.41451 4.69484 9.48483 4.76516C9.55516 4.83549 9.65054 4.875 9.75 4.875Z" fill="white"/>
</g>
<defs>
<clipPath id="clip0_44_5497">
<rect width="12" height="12" fill="white"/>
</clipPath>
</defs>
</svg>
