<svg width="26" height="20" viewBox="0 0 26 20" fill="none" xmlns="http://www.w3.org/2000/svg">
<path d="M7.20319 0.222493C7.23966 0.0765146 7.40424 -0.0502452 7.54793 0.0198819C7.74799 0.0953248 7.95239 0.188757 8.10653 0.344754C8.24864 0.619743 8.2721 0.954024 8.45738 1.20734C8.85928 1.70682 9.23614 2.22756 9.64395 2.72172C9.9471 3.13103 10.2816 3.51295 10.5822 3.92431C11.1303 4.57201 11.6337 5.25938 12.1864 5.90361C12.3224 6.07801 12.4643 6.26037 12.6628 6.3628C12.7675 6.40594 12.8932 6.38427 12.9859 6.3168C13.1739 6.18289 13.302 5.95738 13.3229 5.72287C13.213 5.43459 13.0231 5.1776 12.9593 4.87031C12.9756 4.80284 13.007 4.73373 13.0657 4.69509C13.2875 4.54236 13.5628 4.50454 13.7871 4.35631C14.0573 4.19725 14.313 3.95374 14.643 3.96274C14.9885 3.92492 15.3176 4.10197 15.5715 4.33014C15.828 4.57181 15.7872 4.97069 15.7395 5.29148C15.7239 5.5728 15.5004 5.76233 15.3245 5.94838C15.1383 6.15058 14.8864 6.25649 14.6585 6.39674C14.4888 6.48384 14.46 6.69954 14.4108 6.86842C14.7504 6.72285 15.0257 6.44418 15.3853 6.34093C15.607 6.27264 15.8165 6.13689 16.0558 6.14138C16.5781 6.1377 17.1074 6.17635 17.6218 6.0596C18.2462 5.83757 18.8354 5.5268 19.4391 5.25079C19.7372 5.11606 20.0663 5.09275 20.3756 4.99379C20.8459 4.88155 21.3215 4.76195 21.8066 4.76747C21.9694 4.75847 22.1409 4.8609 22.2031 5.02078C22.1884 5.2238 22.0725 5.40168 21.9779 5.57607C21.7267 5.61737 21.4946 5.51944 21.2633 5.44298C20.8216 5.61819 20.4335 5.93264 19.963 6.03241C19.7352 6.09354 19.4945 6.11317 19.2805 6.22194C19.0128 6.35585 18.7556 6.51124 18.4767 6.61735C18.1439 6.74493 17.8132 6.87435 17.484 7.00642C16.966 7.17816 16.4386 7.31187 15.9145 7.46194C15.6892 7.51592 15.5688 7.73591 15.4391 7.91296C15.2293 8.21208 14.9938 8.51303 14.915 8.88247C14.8336 9.29567 14.6481 9.67493 14.5036 10.0667C14.4646 10.1942 14.3372 10.32 14.4041 10.4584C14.514 10.7154 14.5886 10.9984 14.7809 11.2051C14.9897 11.4396 15.1655 11.7056 15.2971 11.9938C15.3786 12.1789 15.3872 12.3884 15.4678 12.5734C15.5579 12.7047 15.7199 12.7468 15.8636 12.7793C16.0351 12.8161 16.1936 12.8971 16.3418 12.9914C16.645 13.1764 16.9578 13.3508 17.2245 13.5906C17.7529 14.0435 18.3056 14.4648 18.8772 14.8566C19.0816 14.9743 19.3128 15.0291 19.5233 15.1334C19.9234 15.3221 20.3626 15.3859 20.7767 15.5349C21.1812 15.6427 21.5389 15.87 21.9089 16.0641C22.2623 16.2869 22.6468 16.4513 22.9916 16.6903C23.3085 16.8835 23.5866 17.1638 23.9566 17.2493C24.2572 17.3157 24.5456 17.4568 24.8584 17.4505C25.1095 17.4515 25.3616 17.4378 25.6129 17.4576C25.7522 17.6453 25.8701 17.8477 26 18.0425V18.1008C25.948 18.1754 25.915 18.2805 25.8242 18.3112C25.689 18.3758 25.5417 18.321 25.4032 18.3075C25.145 18.2662 24.8844 18.249 24.6244 18.2176C24.3662 18.1951 24.096 18.2194 23.851 18.1178C23.4784 17.8868 23.1408 17.5805 22.718 17.4511C22.2156 17.327 21.7262 17.1546 21.2298 17.0054C20.3837 16.7529 19.5554 16.4411 18.7197 16.1581C17.8067 15.8868 16.9588 15.4284 16.0527 15.1367C15.551 14.921 15.0019 14.8527 14.4632 14.8474C14.0327 14.8762 13.5969 14.7224 13.1725 14.8339C12.7403 15.0451 12.3384 15.3199 11.9329 15.5814C11.6211 15.815 11.2529 15.9434 10.9204 16.1393C10.5315 16.3325 10.133 16.504 9.72773 16.6541C9.26512 16.8966 8.85632 17.2327 8.41894 17.5183C8.10199 17.7214 7.79194 17.9542 7.42552 18.0511C6.86082 18.2388 6.27699 18.3513 5.71386 18.5408C5.43929 18.6199 5.1525 18.6144 4.87458 18.6684C4.52216 18.742 4.16086 18.752 3.80489 18.788C3.63676 18.8526 3.49385 18.9712 3.33459 19.0548C2.91456 19.2435 2.87632 19.8742 2.41214 19.9989C2.19552 20.0098 1.97042 19.9362 1.79618 19.8023C1.62726 19.644 1.38739 19.7456 1.18811 19.7591C0.947248 19.7753 0.716042 19.893 0.473404 19.8544C0.314931 19.8158 0.153897 19.7528 0.0352395 19.6342C-0.00891221 19.5947 -0.0160074 19.5085 0.0395765 19.4762C0.263095 19.2938 0.548895 19.2308 0.81144 19.1329C1.29139 18.9704 1.68876 18.6261 2.16615 18.4564C2.56549 18.2891 3.00109 18.247 3.40141 18.0834C4.25725 17.7187 5.14245 17.4284 5.98252 17.025C6.22594 16.9064 6.50051 16.8336 6.69801 16.6322C7.12494 16.2109 7.59445 15.8308 8.12368 15.555C8.92925 15.078 9.71057 14.5585 10.4866 14.0322C10.6971 13.8803 10.9543 13.8319 11.1794 13.7122C11.2575 13.6781 11.2937 13.5937 11.3042 13.5119C11.3483 13.0519 11.3891 12.59 11.481 12.1374C11.5519 11.7258 11.52 11.3036 11.6101 10.8947C11.6923 10.5379 11.5356 10.193 11.4845 9.84442C11.4031 9.55328 11.4136 9.24701 11.3408 8.95485C11.3097 8.80928 11.2594 8.66473 11.2707 8.51467C11.2992 8.29365 11.4613 8.12927 11.5271 7.92257C11.5912 7.63062 11.4906 7.33682 11.4985 7.04384C11.4924 6.90992 11.5149 6.77069 11.4768 6.64127C11.3686 6.42925 11.2196 6.24402 11.0897 6.04652C10.8152 5.5955 10.4964 5.17596 10.2217 4.72392C9.5044 3.66813 8.8029 2.6013 8.09352 1.53957C7.85108 1.15459 7.40582 0.986532 7.13204 0.634056C7.10543 0.496255 7.16594 0.355592 7.20319 0.222493Z" fill="white"/>
</svg>
