<svg width="49" height="44" viewBox="0 0 49 44" fill="none" xmlns="http://www.w3.org/2000/svg">
<path d="M6.75 6.33203V0.0820312H10.9167V6.33203H17.1667V10.4987H10.9167V16.7487H6.75V10.4987H0.5V6.33203H6.75ZM13 18.832V12.582H19.25V6.33203H33.8333L37.6458 10.4987H44.25C46.5417 10.4987 48.4167 12.3737 48.4167 14.6654V39.6654C48.4167 41.957 46.5417 43.832 44.25 43.832H10.9167C8.625 43.832 6.75 41.957 6.75 39.6654V18.832H13ZM27.5833 37.582C33.3333 37.582 38 32.9154 38 27.1654C38 21.4154 33.3333 16.7487 27.5833 16.7487C21.8333 16.7487 17.1667 21.4154 17.1667 27.1654C17.1667 32.9154 21.8333 37.582 27.5833 37.582ZM20.9167 27.1654C20.9167 30.8529 23.8958 33.832 27.5833 33.832C31.2708 33.832 34.25 30.8529 34.25 27.1654C34.25 23.4779 31.2708 20.4987 27.5833 20.4987C23.8958 20.4987 20.9167 23.4779 20.9167 27.1654Z" fill="#111827"/>
</svg>
