<svg width="42" height="48" viewBox="0 0 42 48" fill="none" xmlns="http://www.w3.org/2000/svg">
<path fill-rule="evenodd" clip-rule="evenodd" d="M0 44.9994C0 44.2037 0.31607 43.4406 0.878679 42.878C1.44129 42.3154 2.20435 41.9994 3 41.9994H39C39.7956 41.9994 40.5587 42.3154 41.1213 42.878C41.6839 43.4406 42 44.2037 42 44.9994C42 45.795 41.6839 46.5581 41.1213 47.1207C40.5587 47.6833 39.7956 47.9994 39 47.9994H3C2.20435 47.9994 1.44129 47.6833 0.878679 47.1207C0.31607 46.5581 0 45.795 0 44.9994ZM9.879 14.1204C9.31659 13.5578 9.00064 12.7949 9.00064 11.9994C9.00064 11.2039 9.31659 10.4409 9.879 9.87836L18.879 0.878359C19.4416 0.315946 20.2045 0 21 0C21.7955 0 22.5584 0.315946 23.121 0.878359L32.121 9.87836C32.6675 10.4442 32.9699 11.202 32.963 11.9886C32.9562 12.7752 32.6407 13.5276 32.0845 14.0838C31.5282 14.64 30.7758 14.9555 29.9892 14.9624C29.2026 14.9692 28.4448 14.6668 27.879 14.1204L24 10.2414V32.9994C24 33.795 23.6839 34.5581 23.1213 35.1207C22.5587 35.6833 21.7956 35.9994 21 35.9994C20.2043 35.9994 19.4413 35.6833 18.8787 35.1207C18.3161 34.5581 18 33.795 18 32.9994V10.2414L14.121 14.1204C13.5584 14.6828 12.7955 14.9987 12 14.9987C11.2045 14.9987 10.4416 14.6828 9.879 14.1204Z" fill="#111827"/>
</svg>
