<svg width="17" height="17" viewBox="0 0 17 17" fill="none" xmlns="http://www.w3.org/2000/svg">
<path d="M14.7384 0.175313C14.6375 0.06375 14.4951 0 14.3442 0H2.65671C2.5069 0 2.36346 0.06375 2.26252 0.175313C2.16265 0.285812 2.11271 0.434563 2.12758 0.584375L3.72133 16.5219C3.74896 16.7939 3.9774 17 4.25046 17H12.7505C13.0235 17 13.252 16.7939 13.2785 16.5219L14.8723 0.584375C14.8882 0.434563 14.8393 0.285812 14.7384 0.175313ZM13.3242 5.39538C11.9738 5.83206 10.2164 6.03394 8.83727 4.90237C7.10858 3.48394 4.98996 3.72831 3.55346 4.15544L3.24427 1.0625H13.7566L13.3242 5.39538Z" fill="white"/>
</svg>
