<svg width="24" height="24" viewBox="0 0 24 24" fill="none" xmlns="http://www.w3.org/2000/svg">
<path d="M12.3836 17.875C14.1881 16.0705 15.2015 13.623 15.2015 11.0714C15.2015 8.51942 14.1881 6.07229 12.3836 4.26778H12.3833C10.5788 6.07229 9.56543 8.51942 9.56543 11.0714C9.56543 13.623 10.5788 16.0705 12.3833 17.875H12.3836Z" stroke="#9C9C9C" stroke-width="1.35505" stroke-miterlimit="10" stroke-linecap="round" stroke-linejoin="round"/>
<path d="M12.3833 17.875C10.5788 16.0705 9.56543 13.623 9.56543 11.0714C9.56543 8.51942 10.5788 6.07229 12.3833 4.26778H12.3836C14.1881 6.07229 15.2015 8.51942 15.2015 11.0714C15.2015 13.623 14.1881 16.0705 12.3836 17.875H12.3833Z" stroke="#9C9C9C" stroke-width="1.35505" stroke-miterlimit="10" stroke-linecap="round" stroke-linejoin="round"/>
<path d="M12.3854 17.875C10.003 17.2364 7.97145 15.6775 6.73816 13.5414C5.50482 11.4052 5.17067 8.86632 5.80925 6.48378C7.3401 6.89383 8.72615 7.68411 9.84842 8.76325C9.66337 9.51256 9.56757 10.2869 9.56757 11.0714C9.56757 13.623 10.5814 16.0705 12.3854 17.875Z" stroke="#9C9C9C" stroke-width="1.35505" stroke-miterlimit="10" stroke-linecap="round" stroke-linejoin="round"/>
<path d="M12.3867 17.875C14.7692 17.2364 16.8007 15.6775 18.034 13.5414C19.2673 11.4052 19.6015 8.86632 18.9632 6.48378H18.9629C17.4321 6.89383 16.046 7.68411 14.9237 8.76325C15.1088 9.51256 15.2046 10.2869 15.2046 11.0714C15.2046 13.623 14.1907 16.0705 12.3867 17.875Z" stroke="#9C9C9C" stroke-width="1.35505" stroke-miterlimit="10" stroke-linecap="round" stroke-linejoin="round"/>
<path d="M12.3855 17.8768H12.3851C10.167 18.4711 7.80346 18.1602 5.8147 17.0118C3.82599 15.8636 2.37499 13.972 1.78027 11.7539V11.7536H1.78064C3.1446 11.3881 4.56325 11.3649 5.91597 11.6683C6.11845 12.3163 6.39311 12.9455 6.73819 13.5432C7.97148 15.6793 10.003 17.2381 12.3855 17.8768Z" stroke="#9C9C9C" stroke-width="1.35505" stroke-miterlimit="10" stroke-linecap="round" stroke-linejoin="round"/>
<path d="M12.3867 17.8768H12.3871C14.6052 18.4711 16.9687 18.1602 18.9575 17.0118C20.9462 15.8636 22.3976 13.972 22.9919 11.7539V11.7536H22.9915C21.6276 11.3881 20.2089 11.3649 18.8562 11.6683C18.6537 12.3163 18.3791 12.9455 18.034 13.5432C16.8007 15.6793 14.7692 17.2381 12.3867 17.8768Z" stroke="#9C9C9C" stroke-width="1.35505" stroke-miterlimit="10" stroke-linecap="round" stroke-linejoin="round"/>
<path d="M12.3853 17.8784H12.3849C9.37915 20.8843 4.50579 20.8843 1.5 17.8784V17.878C2.35922 17.0188 3.37119 16.4051 4.44883 16.0372C4.86826 16.4034 5.32512 16.731 5.81419 17.0133C7.80295 18.1618 10.1669 18.4727 12.3853 17.8784Z" stroke="#9C9C9C" stroke-width="1.35505" stroke-miterlimit="10" stroke-linecap="round" stroke-linejoin="round"/>
<path d="M12.3848 17.8784H12.3851C15.3909 20.8843 20.2643 20.8843 23.2701 17.8784H23.2704C23.2704 17.8784 23.2701 17.8784 23.2701 17.878C22.4109 17.0188 21.3989 16.4051 20.3212 16.0372C19.9018 16.4034 19.445 16.731 18.9559 17.0133C16.9671 18.1618 14.6032 18.4727 12.3848 17.8784Z" stroke="#9C9C9C" stroke-width="1.35505" stroke-miterlimit="10" stroke-linecap="round" stroke-linejoin="round"/>
</svg>
