<svg width="24" height="18" viewBox="0 0 24 18" fill="none" xmlns="http://www.w3.org/2000/svg">
<path d="M11.8836 14.8779C13.6881 13.0734 14.7015 10.626 14.7015 8.07432C14.7015 5.52235 13.6881 3.07522 11.8836 1.27071H11.8833C10.0788 3.07522 9.06543 5.52235 9.06543 8.07432C9.06543 10.626 10.0788 13.0734 11.8833 14.8779H11.8836Z" stroke="#FF6301" stroke-width="1.35505" stroke-miterlimit="10" stroke-linecap="round" stroke-linejoin="round"/>
<path d="M11.8833 14.8779C10.0788 13.0734 9.06543 10.626 9.06543 8.07432C9.06543 5.52235 10.0788 3.07522 11.8833 1.27071H11.8836C13.6881 3.07522 14.7015 5.52235 14.7015 8.07432C14.7015 10.626 13.6881 13.0734 11.8836 14.8779H11.8833Z" stroke="#FF6301" stroke-width="1.35505" stroke-miterlimit="10" stroke-linecap="round" stroke-linejoin="round"/>
<path d="M11.8854 14.8779C9.50298 14.2393 7.47145 12.6804 6.23816 10.5443C5.00482 8.40817 4.67067 5.86925 5.30925 3.48671C6.8401 3.89676 8.22615 4.68704 9.34842 5.76618C9.16337 6.51549 9.06757 7.28982 9.06757 8.07432C9.06757 10.626 10.0814 13.0734 11.8854 14.8779Z" stroke="#FF6301" stroke-width="1.35505" stroke-miterlimit="10" stroke-linecap="round" stroke-linejoin="round"/>
<path d="M11.8867 14.8779C14.2692 14.2393 16.3007 12.6804 17.534 10.5443C18.7673 8.40817 19.1015 5.86925 18.4632 3.48671H18.4629C16.9321 3.89676 15.546 4.68704 14.4237 5.76618C14.6088 6.51549 14.7046 7.28982 14.7046 8.07432C14.7046 10.626 13.6907 13.0734 11.8867 14.8779Z" stroke="#FF6301" stroke-width="1.35505" stroke-miterlimit="10" stroke-linecap="round" stroke-linejoin="round"/>
<path d="M11.8855 14.8778H11.8851C9.66702 15.4721 7.30346 15.1612 5.3147 14.0127C3.32599 12.8646 1.87499 10.973 1.28027 8.7549V8.75454H1.28064C2.6446 8.38912 4.06325 8.3659 5.41597 8.66926C5.61845 9.3173 5.89311 9.94651 6.23819 10.5441C7.47148 12.6803 9.50301 14.2391 11.8855 14.8778Z" stroke="#FF6301" stroke-width="1.35505" stroke-miterlimit="10" stroke-linecap="round" stroke-linejoin="round"/>
<path d="M11.8867 14.8778H11.8871C14.1052 15.4721 16.4687 15.1612 18.4575 14.0127C20.4462 12.8646 21.8976 10.973 22.4919 8.7549V8.75454H22.4915C21.1276 8.38912 19.7089 8.3659 18.3562 8.66926C18.1537 9.3173 17.8791 9.94651 17.534 10.5441C16.3007 12.6803 14.2692 14.2391 11.8867 14.8778Z" stroke="#FF6301" stroke-width="1.35505" stroke-miterlimit="10" stroke-linecap="round" stroke-linejoin="round"/>
<path d="M11.8853 14.8774H11.8849C8.87915 17.8833 4.00579 17.8833 1 14.8774V14.877C1.85922 14.0178 2.87119 13.4042 3.94883 13.0363C4.36826 13.4024 4.82512 13.7301 5.31419 14.0124C7.30295 15.1608 9.66687 15.4717 11.8853 14.8774Z" stroke="#FF6301" stroke-width="1.35505" stroke-miterlimit="10" stroke-linecap="round" stroke-linejoin="round"/>
<path d="M11.8848 14.8774H11.8851C14.8909 17.8833 19.7643 17.8833 22.7701 14.8774H22.7704C22.7704 14.8774 22.7701 14.8774 22.7701 14.877C21.9109 14.0178 20.8989 13.4042 19.8212 13.0363C19.4018 13.4024 18.945 13.7301 18.4559 14.0124C16.4671 15.1608 14.1032 15.4717 11.8848 14.8774Z" stroke="#FF6301" stroke-width="1.35505" stroke-miterlimit="10" stroke-linecap="round" stroke-linejoin="round"/>
</svg>
