<svg width="23" height="24" viewBox="0 0 23 24" fill="none" xmlns="http://www.w3.org/2000/svg">
<path d="M22.8016 17.7284C22.4771 17.4039 22.1312 17.1104 21.7661 16.8477C20.9882 17.746 20.0749 18.5011 19.0451 19.0956C17.45 20.0167 15.6359 20.5084 13.7949 20.5201C14.7725 20.9143 15.8264 21.1211 16.9123 21.1211C19.137 21.1211 21.2285 20.2548 22.8016 18.6817C22.928 18.5553 22.999 18.3839 22.999 18.2052C22.999 18.0265 22.9279 17.8548 22.8016 17.7284Z" fill="#FF6301"/>
<path d="M1.23287 16.8477C0.867747 17.1104 0.521897 17.4039 0.197385 17.7284C0.0710207 17.8548 0 18.0265 0 18.2052C0 18.3839 0.0710207 18.5553 0.197385 18.6817C1.77049 20.2548 3.86203 21.1211 6.08671 21.1211C7.17255 21.1211 8.2265 20.9143 9.20408 20.5201C7.36298 20.5084 5.54896 20.0167 3.95371 19.0955C2.92402 18.5011 2.01068 17.746 1.23287 16.8477Z" fill="#FF6301"/>
<path d="M4.62766 17.9299C5.74786 18.5767 7.05018 19.0105 8.43865 19.1362C6.03944 17.8083 4.74279 15.9647 4.13244 14.9075C3.46123 13.7451 3.00756 12.4855 2.78197 11.1602C2.1117 11.1889 1.44443 11.289 0.795231 11.4615C0.49875 11.5323 0.27832 11.7992 0.27832 12.1173C0.27832 12.1763 0.286047 12.2349 0.30132 12.2919C0.989516 14.8587 2.66985 16.7997 4.62766 17.9299Z" fill="#FF6301"/>
<path d="M14.5615 19.1361C15.95 19.0104 17.2523 18.5767 18.3725 17.9298C20.3303 16.7997 22.0107 14.8587 22.6989 12.2919C22.7142 12.2349 22.7219 12.1763 22.7219 12.1173C22.7219 11.7992 22.5015 11.5323 22.205 11.4615C21.5558 11.289 20.8885 11.1889 20.2182 11.1602C19.9927 12.4855 19.539 13.7451 18.8678 14.9075C18.2574 15.9647 16.9623 17.8074 14.5615 19.1361Z" fill="#FF6301"/>
<path d="M8.4146 17.5444C7.73373 16.4446 6.67633 14.3335 6.67633 11.4395C6.67633 9.97301 6.94779 8.54654 7.48244 7.19315C6.746 6.77309 5.95637 6.44643 5.13426 6.22622C4.77471 6.13 4.40541 6.3432 4.30906 6.70261C3.5736 9.44631 4.09231 12.1409 5.3002 14.2328C6.03355 15.503 7.08668 16.6635 8.4146 17.5444Z" fill="#FF6301"/>
<path d="M14.585 17.5449C15.9132 16.6639 16.9666 15.5031 17.7 14.2328C18.9079 12.1409 19.4266 9.44633 18.6911 6.70263C18.5948 6.34321 18.2255 6.12997 17.8659 6.22624C17.0437 6.44644 16.254 6.7732 15.5175 7.19335C16.052 8.54664 16.3235 9.97307 16.3235 11.4395C16.3236 14.336 15.2643 16.4477 14.585 17.5449Z" fill="#FF6301"/>
<path d="M11.9756 4.19738C11.8492 4.07102 11.6774 4 11.4987 4C11.3201 4 11.1487 4.07102 11.0223 4.19738C9.2574 5.96229 8.02246 8.51005 8.02246 11.4401C8.02246 14.3715 9.25879 16.9193 11.0223 18.6828C11.1487 18.8091 11.3205 18.8802 11.4992 18.8802C11.6779 18.8802 11.8492 18.8091 11.9756 18.6828C13.7387 16.9198 14.9754 14.3721 14.9754 11.4401C14.9755 8.5087 13.7396 5.96131 11.9756 4.19738Z" fill="#FF6301"/>
</svg>
